<svg width="64" height="64" viewBox="0 0 64 64" fill="none" xmlns="http://www.w3.org/2000/svg">
<g clip-path="url(#clip0_43_394)">
<rect width="64" height="64" rx="32" fill="#E7F99A"/>
<rect x="-508" y="-508" width="1080" height="1080" fill="#E7F99A"/>
<path fill-rule="evenodd" clip-rule="evenodd" d="M20.5867 34.7487L20.5867 17.9659L28.1653 22.3413C28.1961 22.6142 28.211 22.8796 28.211 23.1312L28.211 34.7487C28.211 36.8541 29.9172 38.5603 32.0226 38.5603C34.128 38.5603 35.8352 36.853 35.8352 34.7487C35.8352 33.0541 34.73 31.6187 33.2021 31.1218C32.1776 30.7884 31.0553 30.9042 30.1178 31.4456L30.1178 23.4688C31.4896 23.2374 32.8996 23.2618 34.2639 23.5325C39.5077 24.5741 43.4606 29.199 43.4606 34.7497C43.4606 41.0659 38.3409 46.1867 32.0236 46.1867C30.6869 46.1867 29.4043 45.9573 28.212 45.5358C23.7697 43.9655 20.5877 39.7292 20.5877 34.7497L20.5867 34.7487Z" fill="#101010"/>
</g>
<defs>
<clipPath id="clip0_43_394">
<rect width="64" height="64" rx="32" fill="white"/>
</clipPath>
</defs>
</svg>
