<svg xmlns="http://www.w3.org/2000/svg" viewBox="0 0 45.186 37.076" overflow="visible" id="svg1217300353_2648"><g><path d="M 0 0 L 45.186 0 L 45.186 37.076 L 0 37.076 Z" fill="transparent"/><g transform="translate(0 0.087)"><path d="M 2.782 21.817 L 2.782 15.509 L 42.277 15.509 L 42.277 21.817 Z M 34.316 27.458 C 34.316 27.458 34.315 27.458 34.315 27.458 C 34.265 27.504 29.186 32.188 22.53 33.884 C 15.841 32.18 10.746 27.458 10.746 27.458 C 12.264 26.535 12.777 25.343 12.947 24.606 L 32.112 24.606 C 32.284 25.344 32.796 26.535 34.315 27.458 C 34.315 27.458 34.315 27.458 34.315 27.458 C 34.316 27.457 34.316 27.457 34.316 27.457 Z M 10.702 8.614 C 10.702 8.614 16.445 8.92 22.53 4.329 C 28.616 8.92 34.358 8.614 34.358 8.614 C 32.496 10.531 32.186 12.062 32.149 12.721 L 12.91 12.721 C 12.873 12.062 12.565 10.531 10.702 8.614 Z M 45.06 12.721 L 35.16 12.721 C 35.218 11.125 37.251 10.362 37.251 10.362 L 37.251 6.252 C 26.196 5.641 22.529 0 22.529 0 C 22.529 0 18.862 5.641 7.809 6.252 L 7.809 10.362 C 7.809 10.362 9.841 11.125 9.899 12.721 L 0 12.721 L 0 24.605 L 9.866 24.605 C 9.302 26.654 6.491 27.173 6.491 27.173 C 14.545 35.634 22.53 36.988 22.53 36.988 C 22.53 36.988 30.516 35.634 38.568 27.173 C 38.568 27.173 35.756 26.654 35.194 24.605 L 45.06 24.605 Z" fill="var(--token-625c0892-ff02-4987-8809-8c02caf18755, rgba(0, 0, 0, 0.25))"/></g><path d="M 39.923 27.845 C 39.575 27.845 39.293 27.559 39.293 27.204 C 39.293 26.853 39.576 26.566 39.923 26.566 C 40.273 26.57 40.554 26.855 40.553 27.204 C 40.555 27.555 40.273 27.841 39.923 27.845 Z M 39.923 26.477 C 39.529 26.477 39.205 26.805 39.205 27.204 C 39.205 27.607 39.529 27.931 39.923 27.931 C 40.314 27.931 40.638 27.607 40.638 27.204 C 40.638 26.804 40.314 26.477 39.923 26.477 Z" fill="var(--token-625c0892-ff02-4987-8809-8c02caf18755, rgba(0, 0, 0, 0.25))"/><path d="M 39.938 27.178 L 39.735 27.178 L 39.735 26.876 L 39.938 26.876 C 40.044 26.876 40.138 26.891 40.135 27.022 C 40.132 27.157 40.047 27.178 39.938 27.178 Z M 40.238 27.386 C 40.239 27.346 40.229 27.306 40.211 27.27 C 40.194 27.246 40.167 27.228 40.138 27.222 C 40.22 27.184 40.258 27.109 40.258 27.019 C 40.26 26.975 40.25 26.93 40.229 26.891 C 40.174 26.781 40.061 26.772 39.958 26.772 L 39.617 26.772 L 39.617 27.661 L 39.735 27.661 L 39.735 27.282 L 39.935 27.282 C 40.011 27.282 40.061 27.291 40.082 27.308 C 40.102 27.326 40.117 27.365 40.12 27.424 L 40.126 27.538 C 40.126 27.571 40.132 27.631 40.149 27.661 L 40.285 27.661 C 40.264 27.622 40.251 27.58 40.247 27.536 Z" fill="var(--token-625c0892-ff02-4987-8809-8c02caf18755, rgba(0, 0, 0, 0.25))"/></g></svg>