<svg xmlns="http://www.w3.org/2000/svg" viewBox="0 0 114.087 31.895" overflow="visible" id="svg-259555816_4662"><g><path d="M 0 0 L 114.087 0 L 114.087 31.895 L 0 31.895 Z" fill="transparent"/><path d="M 75.127 27.337 L 75.117 27.349 C 76.268 27.549 77.133 28.059 77.133 29.097 C 77.133 30.645 75.177 31.072 73.656 31.072 C 72.012 31.072 71.368 30.709 70.973 30.443 C 70.219 29.944 70.071 29.398 70.071 28.787 L 71.195 28.787 C 71.195 29.971 72.505 30.316 73.644 30.316 C 74.51 30.316 75.97 30.152 75.97 29.214 C 75.97 28.53 75.537 28.312 74.077 28.058 L 72.259 27.748 C 71.677 27.647 70.367 27.348 70.367 26.207 C 70.367 25.187 71.27 24.185 73.424 24.185 C 76.527 24.185 76.838 25.553 76.892 26.271 L 75.768 26.271 C 75.707 25.26 74.565 24.941 73.568 24.941 C 72.814 24.941 71.539 25.092 71.539 26.084 C 71.539 26.642 72.071 26.819 72.59 26.909 L 75.126 27.335 Z M 50.11 24.32 L 53.8 30.859 L 52.294 30.859 L 51.286 28.956 L 47.195 28.956 L 46.13 30.859 L 44.71 30.859 L 48.543 24.32 Z M 44.38 26.159 C 44.38 27.069 43.649 28.1 41.647 28.1 L 38.749 28.1 L 38.749 30.859 L 37.506 30.859 L 37.506 24.32 L 41.647 24.32 C 43.355 24.32 44.38 25.104 44.38 26.159 Z M 61.782 30.813 L 59.905 28.16 C 59.881 28.124 59.836 28.107 59.789 28.1 L 59.848 28.1 C 59.828 28.096 59.808 28.096 59.789 28.1 L 57.264 28.1 L 57.264 30.859 L 56.017 30.859 L 56.017 24.32 L 60.161 24.32 C 61.863 24.32 62.889 25.103 62.889 26.16 C 62.889 26.912 62.383 27.745 61.079 28.011 L 63.177 30.813 Z M 66.11 30.822 L 66.11 26.148 L 67.29 26.148 L 67.29 30.822 Z M 50.787 28.175 L 49.281 25.297 L 49.252 25.297 L 47.621 28.175 Z M 41.222 27.34 C 42.337 27.34 43.094 27.048 43.094 26.171 C 43.094 25.342 42.298 25.077 41.274 25.077 L 38.747 25.077 L 38.747 27.345 L 41.222 27.345 Z M 57.264 27.345 L 59.74 27.345 C 60.856 27.345 61.613 27.053 61.613 26.171 C 61.613 25.337 60.816 25.072 59.791 25.072 L 57.267 25.072 L 57.267 27.342 Z M 67.282 24.286 L 67.282 25.463 L 66.099 25.463 L 66.099 24.286 Z M 27.835 0.833 C 27.833 0.833 27.832 0.833 27.83 0.833 C 27.829 0.833 27.828 0.833 27.826 0.833 Z M 27.83 0.833 C 34.45 0.835 39.057 5.514 39.057 11.181 C 39.057 17.203 34.031 21.353 27.832 21.353 C 21.632 21.353 16.605 17.144 16.605 11.181 C 16.605 5.515 21.154 0.835 27.83 0.833 Z M 54.077 13.131 L 54.078 13.131 C 55.552 15.355 59.125 19.971 59.125 19.971 L 56.143 19.971 L 51.174 13.108 L 44.419 13.108 L 44.419 19.97 L 42.051 19.97 L 42.051 3.607 L 52.428 3.607 C 55.99 3.607 57.972 5.419 58.198 8.342 C 58.216 9.339 57.847 12.129 54.077 13.13 Z M 101.503 18.188 L 101.506 18.186 L 114.087 18.186 L 114.087 19.971 L 99.202 19.971 L 99.202 3.603 L 101.503 3.603 Z M 62.066 19.969 L 62.066 3.604 L 76.789 3.604 L 76.789 5.387 L 64.593 5.387 L 64.593 10.654 L 73.75 10.654 L 73.75 12.464 L 64.592 12.464 L 64.592 18.186 L 76.792 18.186 L 76.792 19.971 L 62.067 19.971 Z M 86.323 3.605 L 89.542 3.605 L 97.921 19.971 L 95.12 19.971 L 92.961 15.737 L 82.926 15.737 L 80.787 19.971 L 77.959 19.971 L 86.328 3.607 Z M 14.883 18.185 L 14.883 19.969 L 0 19.969 L 0 3.604 L 2.303 3.604 L 2.303 18.185 Z M 27.764 19.32 C 32.382 19.32 36.369 15.63 36.369 11.185 C 36.369 6.743 32.799 2.877 27.941 2.877 C 22.961 2.877 19.333 6.743 19.333 11.187 C 19.333 15.63 23.139 19.32 27.756 19.32 Z M 91.93 13.686 L 87.937 5.868 L 83.989 13.686 Z M 52.114 11.173 C 53.368 11.172 54.628 10.94 55.295 9.847 C 55.7 9.186 55.858 8.214 55.611 7.472 C 55.239 6.395 54.208 5.545 52.378 5.545 L 44.423 5.545 L 44.423 11.172 L 52.114 11.172 Z M 52.106 11.173 L 52.114 11.173 L 52.114 11.173 C 52.112 11.173 52.109 11.173 52.106 11.173 Z M 10.652 9.394 L 12.961 3.604 L 15.456 3.604 L 12.357 9.394 Z M 112.431 3.412 C 112.43 3.412 112.43 3.412 112.43 3.412 C 112.429 3.412 112.429 3.412 112.428 3.412 Z M 112.43 3.412 C 113.318 3.412 114.069 4.098 114.069 5.012 C 114.069 5.903 113.366 6.629 112.433 6.629 C 111.538 6.629 110.78 5.947 110.78 5.017 C 110.78 4.098 111.535 3.412 112.43 3.412 Z M 112.431 3.68 C 111.681 3.68 111.108 4.263 111.108 5.017 C 111.108 5.783 111.678 6.359 112.431 6.359 C 113.206 6.359 113.741 5.753 113.741 5.012 C 113.741 4.267 113.173 3.681 112.431 3.681 Z M 111.81 4.086 L 112.527 4.086 C 112.904 4.086 113.187 4.204 113.187 4.609 C 113.187 4.958 112.965 5.091 112.698 5.128 L 113.225 5.942 L 112.908 5.942 L 112.412 5.139 L 112.084 5.139 L 112.084 5.945 L 111.802 5.945 L 111.802 4.092 Z M 112.085 4.323 L 112.085 4.901 L 112.45 4.901 C 112.804 4.901 112.882 4.783 112.882 4.599 C 112.882 4.464 112.826 4.323 112.464 4.323 Z M 73.981 0.957 L 67.725 3.181 L 69.719 0.957 Z" fill="var(--token-625c0892-ff02-4987-8809-8c02caf18755, rgba(0, 0, 0, 0.25))"/></g></svg>