<svg xmlns="http://www.w3.org/2000/svg" width="83" height="29" viewBox="0 0 83 29" fill="none" id="svg452390789_626">
<path d="M82.4833 0L22.1394 25.6937C17.1354 27.8108 12.9322 28.8728 9.53313 28.8728C5.68388 28.8728 2.88973 27.5256 1.15757 24.8277C0.0680968 23.0955 -0.251528 20.8994 0.195259 18.2358C0.642047 15.5723 1.83119 12.7369 3.75582 9.71936C5.36082 7.27921 7.98999 4.07264 11.6502 0.0962308C10.4087 2.05064 9.49831 4.19657 8.95574 6.44749C7.99343 10.5545 8.85951 13.5686 11.554 15.4932C12.8359 16.3902 14.599 16.8405 16.8467 16.8405C18.6407 16.8405 20.6616 16.5518 22.9093 15.9744L82.4833 0Z" fill="#101010" fill-opacity="0.25"/>
</svg>