<svg xmlns="http://www.w3.org/2000/svg" width="186" height="37" viewBox="0 0 186 37" fill="none" id="svg1528131352_23068">
<path fill-rule="evenodd" clip-rule="evenodd" d="M97.6378 22.4656C97.6378 21.3768 98.9684 20.8511 99.7472 20.4617C100.227 20.2218 100.654 20.0079 101.133 19.768C102.149 19.2592 102.974 19.3357 103.975 19.6086C104.334 19.7061 105.881 20.0965 106.08 20.2614C106.306 20.4485 106.452 20.8829 106.452 21.2904C106.452 22.152 106.556 25.6904 106.317 26.2634C106.135 26.702 105.618 26.8617 105.096 27.1215C104.845 27.2466 104.653 27.366 104.388 27.4982C103.508 27.937 102.216 28.794 101.39 28.794C100.717 28.794 99.3684 28.0263 98.7651 27.6666C98.4805 27.497 98.2846 27.3543 98.1077 27.0583C97.9245 26.7514 97.8537 26.5075 97.8208 26.0795C97.7893 25.6691 97.812 25.2729 97.7667 24.8679L97.6378 22.4656ZM117.258 36.5236H116.697C116.091 36.4988 115.498 36.3902 114.661 36.1798C113.642 35.9233 112.249 35.7409 111.349 35.2887C110.333 34.7786 109.877 34.1396 109.085 33.3482L107.051 31.2237C106.38 30.5522 106.621 30.5837 106.271 29.924C106.049 29.9426 105.978 30.0417 105.805 30.1352L103.544 31.2651C103.375 31.3495 103.26 31.4047 103.092 31.4903L100.862 32.6511C100.628 32.7832 100.171 32.9526 99.8662 33.0114C99.4754 33.0867 99.1217 33.0902 98.6898 33.0308C97.9018 32.9224 97.4288 32.6093 96.8238 32.1845C96.2902 31.8097 95.7998 31.4269 95.2679 31.0283C94.2603 30.2731 93.0496 29.5987 92.6024 28.3147C92.401 27.7366 92.3871 27.1355 92.437 26.5315C92.4549 26.3162 92.424 26.0735 92.4418 25.8582L92.5314 24.5917C92.5589 23.6274 92.6387 21.7275 92.8547 20.8467C93.2168 19.3703 94.4411 18.8656 95.6489 18.2618C95.9501 18.1111 96.2517 17.9608 96.5529 17.8097L100.402 16.2342C101.861 15.6871 103.534 16.2421 104.864 16.6855C105.141 16.7776 106.138 17.1681 106.416 16.9608C106.582 16.8373 106.614 16.4478 106.569 16.1565C106.478 15.5679 106.54 14.8433 106.543 14.2384C106.545 13.8644 106.496 13.6733 106.497 13.2897C106.502 12.0982 106.229 11.9177 105.449 11.4C104.991 11.0959 104.084 10.3514 103.559 10.3514C102.645 10.3514 102.218 10.4689 101.392 10.5801C100.696 10.6738 100.424 10.7241 100.095 11.2269C99.9042 11.5192 99.189 13.5804 99.0329 14.0518C98.873 14.5354 98.742 15.0285 98.2542 15.2168C97.88 15.3612 96.9689 15.3552 96.501 15.4074L95.5589 15.4598C94.6385 15.4572 93.5695 15.9125 93.5695 14.5552C93.5695 13.8641 93.878 12.7163 94.0181 12.0204C94.3427 10.4066 94.1453 10.4401 95.3416 9.63727C96.3743 8.94424 97.3793 8.19741 98.4966 7.63922C98.8425 7.46636 99.1073 7.28093 99.6248 7.27566L101.843 7.32103C102.109 7.32424 102.215 7.37038 102.519 7.36858C102.917 7.36627 103.588 7.33025 103.954 7.38035C104.811 7.49787 105.935 7.37768 106.808 7.46456C107.188 7.50238 107.665 7.64485 107.975 7.78902C108.715 8.13361 109.024 8.61236 109.56 9.14237C109.805 9.38456 110.083 9.63597 110.305 9.88841C111.186 10.8887 111.836 11.2443 111.788 12.839L111.694 14.237C111.691 14.4927 111.698 14.7525 111.697 15.0087C111.697 15.2945 111.648 15.3846 111.65 15.6842C111.65 15.9248 111.655 16.1702 111.652 16.4104C111.649 16.6756 111.603 16.7817 111.605 17.0859C111.615 18.8134 111.415 21.1159 111.425 22.8279C111.427 23.1446 111.378 23.258 111.378 23.5489C111.376 24.5128 111.284 25.5348 111.29 26.3989C111.292 26.8483 111.198 27.8187 111.198 28.4775C111.198 29.2784 111.918 30.7154 112.337 31.4076C112.849 32.254 113.327 33.0597 114.317 33.4505C115.638 33.9717 116.921 33.9705 118.329 33.7092C118.553 33.6675 118.895 33.5739 119.109 33.495C120.627 32.9372 121.298 32.7692 121.501 30.96C121.685 29.3266 121.685 28.8712 123.312 28.7937L124.716 28.705C125.107 28.7058 125.625 28.5544 125.9 28.9194C126.071 29.1468 125.999 29.3935 125.947 29.6649C125.732 30.7694 125.462 31.8137 125.193 32.8893C124.906 34.0367 124.693 34.8745 123.792 35.4209C123.216 35.771 119.653 36.2454 118.774 36.369C118.172 36.4534 117.694 36.507 117.258 36.5236ZM146.818 19.1659C147.927 19.1659 148.379 19.3495 149.414 19.6435C149.68 19.7191 150.25 19.8653 150.422 19.9919C150.667 20.1722 150.841 20.5206 150.841 20.9288V25.5394C150.841 25.8566 150.728 26.0913 150.579 26.2715C150.389 26.5015 147.573 27.875 147.27 28.0252C146.837 28.2399 146.423 28.568 145.779 28.568C145.159 28.568 144.626 28.1708 144.182 27.9501C142.963 27.3458 142.294 27.233 142.252 25.4498C142.245 25.1543 142.236 24.6734 142.195 24.3765L142.116 23.326C142.094 22.543 141.998 21.9692 142.35 21.4333C142.63 21.0086 143.241 20.7652 143.68 20.5028C144.359 20.0977 146.167 19.1659 146.818 19.1659ZM138.004 14.4196C138.004 15.0346 138.409 15.2897 139.086 15.231C139.75 15.1735 142.379 15.0438 142.673 14.9307C143.198 14.7291 143.286 14.2869 143.468 13.7811C143.622 13.3524 144.373 11.143 144.502 10.9283C144.804 10.4259 145.153 10.4104 145.817 10.2998C146.558 10.1766 147.097 10.0801 147.858 10.0801C148.428 10.0801 149.034 10.5866 149.531 10.9388L150.281 11.4542C150.513 11.6282 150.709 11.8861 150.825 12.1759C151.035 12.7027 150.885 15.0263 150.932 15.8663C150.943 16.0833 151.011 16.1809 150.955 16.4305C150.81 17.067 150.014 16.6695 149.423 16.4707C148.475 16.152 146.935 15.7304 145.914 15.7304C145.095 15.7304 143.239 16.5222 142.375 16.8927C142.195 16.9701 142.107 17.0243 141.91 17.1056C141.013 17.476 139.022 18.4817 138.385 18.9592C136.955 20.03 137.248 20.8853 137.016 22.9695C136.968 23.3954 137.008 23.836 136.945 24.2546L136.78 26.8054C136.803 28.9417 138.135 29.6258 139.599 30.7248C140.13 31.1233 140.615 31.4871 141.149 31.8871C142.142 32.6317 142.763 32.9089 144.19 32.7653C144.925 32.6912 146.25 31.8809 146.999 31.5061C147.251 31.38 150.43 29.698 150.615 29.698C150.937 29.698 150.558 30.1857 151.41 30.8472L153.508 32.6362C154.345 33.2789 154.638 33.7038 155.873 33.0123L157.54 32.0571C157.8 31.9 158.204 31.7176 158.073 31.3307C157.946 30.9574 157.082 30.3133 156.728 30.0044L155.653 29.0901C155.294 28.7632 155.389 28.2528 155.471 27.683L155.645 25.778C155.682 25.4898 155.695 25.1227 155.742 24.7902C155.885 23.7942 155.962 21.9605 156.111 20.9097C156.258 19.8744 156.321 18.0766 156.472 17.0221C156.584 16.2459 156.633 14.9038 156.744 14.1293C157.078 11.7959 156.189 11.2146 154.92 9.84344L154.446 9.32306C154.097 8.97411 153.829 8.60569 153.45 8.2852C152.729 7.6751 151.786 7.24684 150.525 7.18687C150.324 7.17726 150.308 7.14305 150.075 7.14023C149.91 7.13817 149.741 7.14201 149.576 7.14201C149.244 7.14201 148.913 7.14164 148.581 7.14201C148.198 7.14254 147.971 7.09435 147.633 7.09576L145.643 7.05166C145.292 7.05296 145.014 6.97825 144.713 7.02514C143.999 7.13663 143.918 6.99824 143.008 7.35435C142.444 7.57477 141.075 8.44551 140.471 8.84096C139.652 9.37726 138.78 9.8205 138.572 10.9646C138.513 11.2869 138.004 14.1581 138.004 14.4196ZM72.2791 19.1659C73.0269 19.1659 73.0554 19.1672 73.8068 19.3558C74.1588 19.4441 74.5114 19.5321 74.8813 19.6374C75.1682 19.7191 75.6914 19.8534 75.8897 19.9851C76.1298 20.1449 76.3021 20.5379 76.3021 20.9288V25.5846C76.3021 25.8635 76.1574 26.1316 76.0057 26.2825C75.8426 26.4447 75.5925 26.5533 75.3961 26.6675L72.731 28.0255C71.1793 28.8013 71.2228 28.7405 69.6422 27.9502C68.4407 27.3495 67.7555 27.2234 67.7123 25.4502L67.6242 23.866C67.627 23.1971 67.3437 22.1445 67.8113 21.4333C68.135 20.9407 69.2934 20.4268 69.8361 20.1131C70.3532 19.8142 71.7669 19.1659 72.2791 19.1659ZM63.4646 14.4196C63.4646 15.4289 64.4102 15.2059 65.048 15.1894L65.8153 15.143C66.0115 15.1329 65.9802 15.1075 66.1765 15.0975C66.3077 15.0907 66.45 15.1058 66.5811 15.0952C66.7868 15.0786 67.1066 15.0722 67.3453 15.0459C68.6943 14.8975 68.5386 14.7443 69.0378 13.4835C69.1199 13.2761 69.1801 13.0715 69.2447 12.8769L69.883 11.0743C70.2356 10.2682 71.1199 10.3094 72.2138 10.1505C72.7141 10.0778 73.2023 9.99375 73.6428 10.1178C74.0715 10.2385 74.359 10.4884 74.675 10.7128C74.9934 10.9391 75.3151 11.1376 75.6375 11.3776C75.9295 11.5951 76.2407 11.8965 76.3304 12.312C76.4539 12.8845 76.345 15.3211 76.3949 15.9089C76.4319 16.3432 76.5462 16.7701 75.9404 16.7701C75.4969 16.7701 73.2454 15.7304 71.3298 15.7304C70.612 15.7304 68.8253 16.4496 68.2406 16.7095C66.8968 17.3067 63.8619 18.5463 63.0931 19.6985C62.5534 20.5073 62.5652 21.6937 62.5154 22.6918L62.4224 24.1357C62.4013 24.4001 62.3699 24.8359 62.341 25.094C62.3231 25.2556 62.3453 25.42 62.332 25.5822C62.3176 25.76 62.2873 25.8019 62.2884 26.0357C62.291 26.665 62.1497 26.9699 62.4047 27.8649C62.497 28.1883 62.5654 28.3367 62.7092 28.6C62.9639 29.0669 63.2885 29.3863 63.6968 29.6918L67.1831 32.3078C67.7935 32.7536 68.6469 32.7718 69.4313 32.7718C70.0643 32.7718 70.7748 32.3963 71.2087 32.1535C71.7348 31.8589 72.2419 31.6127 72.7915 31.3405L74.7494 30.3151C75.0392 30.1681 75.8522 29.698 76.0761 29.698C76.2244 29.698 76.2222 29.8229 76.2644 29.9618C76.4517 30.5803 76.9197 30.9155 77.4131 31.2993L79.2955 32.8974C79.4017 32.9905 79.4425 33.0364 79.5746 33.1155C80.4347 33.6295 80.9128 33.2453 81.7285 32.7739C81.8742 32.6897 82.0099 32.6184 82.1646 32.5319C82.7316 32.2147 83.6858 31.8061 83.5393 31.325C83.461 31.0681 83.1277 30.7889 82.9209 30.6282L81.6707 29.573C80.8649 28.8548 80.7507 28.9459 80.9319 27.683C81.0756 26.6814 81.1484 24.9214 81.287 23.8343C81.3943 22.9928 81.4585 21.6524 81.5647 20.9026C81.6762 20.1152 81.7319 18.7349 81.836 18.0097C81.9549 17.1809 82.0026 15.8556 82.1141 15.0784L82.2689 13.0184C82.2689 12.2837 81.9799 11.6807 81.6102 11.1908L81.1495 10.6571C81.0424 10.5415 81.0188 10.4794 80.9023 10.3618L79.6856 9.09238C79.1606 8.43438 78.4927 7.86373 77.7035 7.54862C77.4654 7.45367 77.2429 7.37089 76.9534 7.30424C76.404 7.17777 76.5084 7.23505 76.0436 7.17456C74.9119 7.02706 73.2622 7.21891 72.131 7.06398L70.1995 7.00619C68.5696 7.09512 67.8387 7.61205 66.5924 8.41654C63.8181 10.2072 64.2146 9.81692 63.6002 13.5156C63.5579 13.7698 63.4646 14.16 63.4646 14.4196ZM32.0487 19.1659C33.0819 19.1659 33.6799 19.3992 34.5899 19.6532C35.4037 19.8803 35.9813 19.9761 35.9813 21.0191V25.5394C35.9813 25.8566 35.8677 26.0913 35.7189 26.2715C35.5485 26.478 34.7231 26.8471 34.4441 26.9855L32.4411 28.0111C32.0356 28.238 31.557 28.568 30.9638 28.568C30.2556 28.568 29.8459 28.2097 29.3518 27.9651C28.1335 27.3619 27.4034 27.2314 27.3916 25.405C27.3876 24.7677 27.309 24.3874 27.3041 23.8201C27.2981 23.1175 27.0303 22.1028 27.5085 21.4061C27.6919 21.1389 27.846 21.0548 28.13 20.8975L29.1989 20.2939C29.3294 20.2185 29.4193 20.1633 29.5775 20.0849C30.1998 19.7762 31.3881 19.1659 32.0487 19.1659ZM23.1438 14.4647C23.1438 15.1141 23.6962 15.2967 24.3124 15.2267C25.0985 15.1374 27.4725 15.0942 27.8767 14.9034C28.3386 14.6853 28.4702 14.2296 28.642 13.7251C28.7633 13.3686 29.4913 11.1472 29.6777 10.8734C30.0018 10.3979 30.3636 10.394 31.0344 10.2863C31.8165 10.1609 32.1844 10.0801 32.998 10.0801C33.5816 10.0801 34.5625 10.8353 35.0447 11.1975C35.18 11.2992 35.2852 11.3527 35.4208 11.4542C36.2725 12.0923 36.0717 13.208 36.0717 14.6005C36.0717 14.9859 36.0432 15.493 36.0741 15.8637C36.1165 16.3722 36.2543 16.7701 35.5745 16.7701C35.3477 16.7701 34.7474 16.5283 34.5295 16.4591C33.5343 16.1432 32.1185 15.7304 31.0543 15.7304C30.3283 15.7304 28.7085 16.3838 27.9934 16.6927L26.6238 17.312C25.6677 17.7372 24.305 18.3747 23.5247 18.9592C22.5458 19.6923 22.3012 20.4549 22.2396 21.6971L22.0917 24.2614C22.0388 24.6489 22.0367 25.0956 22.0139 25.5396C21.9675 26.4389 21.808 27.0436 22.1089 27.9756C22.3247 28.6441 22.6913 29.1585 23.1948 29.5566C23.6819 29.9416 26.7062 32.2499 27.0904 32.4415C27.8135 32.802 28.5365 32.8451 29.33 32.7653C29.7621 32.7217 30.0126 32.5921 30.346 32.4253L33.9322 30.5871C34.2351 30.4356 35.5988 29.698 35.7553 29.698C35.9622 29.698 35.905 30.0028 36.073 30.3296C36.2759 30.7246 37.2296 31.3932 37.5972 31.7434L38.6483 32.6362C39.4847 33.2789 39.778 33.7038 41.0133 33.0123L42.6799 32.0571C43.5939 31.5061 43.3165 31.2284 42.4318 30.4801C42.3409 30.4032 42.3237 30.406 42.2307 30.3195C42.0996 30.1976 42.0017 30.1212 41.8677 30.0044C41.6254 29.7931 41.3965 29.6229 41.1478 29.4135C40.4836 28.8542 40.4603 28.7477 40.6111 27.683L40.7922 25.7847C40.9018 25.0093 40.9531 23.6231 41.0631 22.8463C41.2118 21.7955 41.2888 19.9618 41.4317 18.9658C41.531 18.2733 41.5959 16.8299 41.703 16.0729L41.948 13.0635C41.948 12.174 41.4622 11.285 40.9204 10.7462L39.8554 9.59624C39.6846 9.39185 39.4752 9.22796 39.2918 9.02973L38.7507 8.44089C37.665 7.34961 36.2357 7.14201 34.4445 7.14201C32.8087 7.14201 31.251 7.05155 29.5625 7.05155C29.1038 7.05155 28.4855 7.21147 28.148 7.35474C27.5375 7.61385 26.0783 8.52945 25.4491 8.95001C25.1439 9.15415 24.9656 9.23898 24.6702 9.48208C23.9001 10.1158 23.8065 10.3988 23.6281 11.4686C23.5663 11.8394 23.1438 14.1476 23.1438 14.4647ZM0.994394 31.7774C1.47368 31.7774 4.37076 31.7639 4.52186 31.6886C4.90629 31.4971 4.76931 30.9526 4.84325 30.2923C4.90886 29.7066 4.93743 28.4939 5.01087 27.8381L5.15476 25.4055C5.16487 24.2213 5.34199 22.5893 5.37774 21.289L5.46719 20.1127C5.47911 19.9684 5.46384 19.8074 5.46809 19.6617C5.47398 19.457 5.49832 19.4683 5.51228 19.2991C5.52408 19.157 5.5114 18.9921 5.51293 18.8477L5.59276 17.6618C5.67426 17.0598 5.56188 16.7851 5.90404 15.7581C6.32076 14.5068 6.48426 14.5637 7.40704 13.8257C9.38548 12.2435 9.02757 12.521 11.6622 12.521C12.6209 12.521 12.8773 12.8816 13.6893 13.4774C14.8925 14.3598 14.5808 14.4139 14.6975 15.4526C14.7459 15.8841 14.7383 16.4059 14.7358 16.906C14.7343 17.2085 14.7754 17.3363 14.7828 17.5822C14.7903 17.8324 14.7813 18.1001 14.7813 18.3521L14.8259 20.5678C14.8241 20.8846 14.8728 20.998 14.8733 21.2889C14.8747 22.322 14.9201 23.1997 14.9158 24.2296C14.9146 24.5293 14.9632 24.6193 14.9636 24.905L15.0506 30.1066C15.0765 32.1941 15.5692 31.8677 18.3071 31.8677C19.4533 31.8677 19.2482 30.6033 19.3039 29.9265L19.3854 28.8326C19.4083 28.6277 19.3755 28.4178 19.3986 28.2129L19.6649 23.6879C19.6771 22.4777 19.8322 21.4663 19.8424 20.2943L20.0711 16.9069C20.121 14.8717 20.6179 13.9825 19.4181 12.3142C19.0386 11.7866 17.31 9.47887 16.9332 9.19388C16.6484 8.97822 16.3413 8.86583 15.8659 8.85992C15.4722 8.85507 14.9821 8.76383 14.5224 8.82687C13.696 8.94015 12.6574 8.8106 11.7524 8.85942L10.4088 8.91708C9.97597 8.97436 9.63587 9.01333 9.2372 9.14671C8.15785 9.50821 7.61566 10.2652 6.94726 11.0606C6.72903 11.3202 6.39905 11.7978 6.19274 11.7978C5.88698 11.7978 6.02859 11.1251 6.05728 10.5322L6.24465 7.87181C6.26668 7.6728 6.26795 7.34296 6.3023 7.11588C6.3938 6.50937 6.42917 5.17205 6.46389 4.47493C6.47375 4.27849 6.49926 4.31014 6.50937 4.11356C6.51605 3.98235 6.50092 3.84009 6.51157 3.709L6.60126 2.57814C6.61023 1.52184 6.97967 0.378911 6.05395 0.0484167C5.98502 0.023815 5.85354 0.00856274 5.6817 -3.05176e-05H4.59643C3.96277 0.0156083 3.2918 0.0455919 2.93811 0.0452223C2.39015 0.0444369 1.94293 0.0917219 1.35603 0.0903128C0.133268 0.0873791 0.00974827 0.586118 0 1.48377V3.70543C0.00831606 3.94442 0.0470352 4.08768 0.0454875 4.38434L0.0448378 6.82589C0.0433132 7.14291 0.0889389 7.27722 0.0922653 7.54696L0.0903478 9.98978C0.089701 10.5366 0.135578 10.9862 0.135578 11.5719C0.135578 12.1143 0.135717 12.6567 0.135578 13.1992C0.135578 13.7622 0.180808 14.1637 0.180808 14.736V16.3633C0.180808 16.9523 0.226177 17.3782 0.226039 17.9454C0.225022 21.6701 0.361635 25.4602 0.361635 29.1557C0.361635 29.4462 0.375472 31.3585 0.449785 31.5084C0.52925 31.6683 0.753113 31.7774 0.994394 31.7774Z" fill="#101010" fill-opacity="0.25"/>
<path fill-rule="evenodd" clip-rule="evenodd" d="M115.945 31.687L118.252 31.6436C118.578 31.6456 118.713 31.5723 118.892 31.4246C119.448 30.965 119.373 29.9219 119.432 29.3883C119.486 28.9001 119.5 28.2823 119.554 27.793L119.652 26.218C119.651 25.9088 119.687 25.7356 119.695 25.4027C119.7 25.1968 119.726 25.21 119.739 25.0398C119.751 24.8949 119.732 24.7375 119.744 24.5926L119.876 22.5999C119.883 22.3363 119.969 21.8264 119.968 21.3813C119.967 20.8992 120.079 19.9231 120.104 19.4372L120.193 17.809C120.199 17.5534 120.283 17.0305 120.284 16.5893C120.286 16.0844 120.397 15.5081 120.585 15.1729C120.932 14.5547 121.77 14.0046 122.389 13.5415L123.347 12.7809C124.056 12.0974 125.548 12.3922 126.432 12.385C127.002 12.3804 127.381 12.4967 127.741 12.7031C128.06 12.8859 128.325 13.2169 128.59 13.4816L129.349 14.3498C129.523 14.7115 129.46 15.319 129.46 15.8209C129.46 16.4099 129.506 16.8358 129.506 17.403C129.505 17.9455 129.506 18.4879 129.506 19.0303C129.505 19.5974 129.551 20.0233 129.551 20.6124C129.551 21.72 129.596 22.6728 129.596 23.7766C129.596 24.3646 129.641 24.7838 129.641 25.3586C129.641 25.8808 129.592 26.4621 129.667 26.9598L129.732 30.105C129.73 30.6644 129.782 31.113 130.057 31.407C130.322 31.6905 130.857 31.687 131.404 31.687C132.613 31.687 133.253 31.8716 133.531 30.7849C133.667 30.2531 133.893 27.1483 133.994 26.366C134.029 26.0937 134.05 25.7713 134.075 25.4524C134.118 24.8938 134.212 24.2552 134.25 23.6845L134.911 16.4797C134.955 16.1736 134.95 15.9106 134.982 15.6021C135.006 15.3746 135.052 14.9163 135.046 14.6966C135.03 14.033 134.932 13.5998 134.662 13.1509C134.419 12.748 134.108 12.3774 133.81 12.0135C133.399 11.511 132.204 10.0083 131.823 9.61627C131.26 9.03807 130.9 8.40774 129.551 8.40774C129.31 8.40774 129.068 8.40864 128.827 8.40735C128.51 8.4058 128.376 8.45131 128.106 8.45464C127.865 8.45771 127.621 8.45106 127.379 8.45131C127.088 8.45168 126.975 8.5009 126.658 8.49871L125.237 8.56933C124.723 8.6457 124.479 8.57587 123.925 8.79409C123.614 8.91648 123.228 9.15111 123.034 9.3947C122.733 9.7744 121.586 11.0466 121.203 11.3606C121.055 11.4813 120.92 11.598 120.691 11.617C120.457 11.2677 120.574 10.9232 120.598 10.6202C120.628 10.25 120.588 10.0935 120.672 9.51863C120.7 9.32486 120.733 8.93877 120.737 8.77014C120.762 7.83428 120.74 7.18715 119.245 7.18715H115.945C114.985 7.18715 114.686 7.59337 114.677 8.45106L114.639 9.2585C114.724 10.2851 114.679 11.5091 114.679 12.6115V19.3919L114.724 29.5173C114.724 30.0805 114.684 30.6462 114.889 31.0248C115.082 31.3802 115.418 31.687 115.945 31.687ZM158.481 13.2443C158.481 13.644 160.008 17.7963 160.272 18.3232C160.466 18.7083 160.798 18.948 161.187 19.1267C162.024 19.5119 165.418 20.3851 166.563 20.6666L169.275 21.3901C169.968 21.5802 171.317 21.8398 171.782 22.3632C172.183 22.8137 173.262 25.4765 173.262 26.0819C173.262 26.9817 172.953 27.3476 172.222 27.7095C171.682 27.977 171.177 28.2543 170.64 28.5228C170.376 28.6546 170.133 28.7764 169.856 28.9145C169.558 29.0636 169.337 29.1624 169.028 29.3061C168.332 29.6285 168.051 29.8818 167.187 29.5804C167.002 29.5159 166.945 29.4723 166.783 29.3965C166.627 29.3238 166.529 29.2937 166.376 29.2163C166.087 29.0707 165.851 28.9564 165.562 28.8097L163.994 27.9818C163.777 27.8707 163.536 27.616 163.376 27.4246C163.261 27.2871 163.234 27.2399 163.103 27.11C162.726 26.7394 162.005 25.675 161.464 25.675C160.906 25.675 159.715 26.3935 159.189 26.6546L157.647 27.4629C157.528 27.533 157.495 27.533 157.406 27.6296C156.859 28.2233 157.901 28.8667 158.266 29.2341C158.792 29.7619 160.041 30.9287 160.592 31.3384C161.07 31.694 161.373 31.9349 162.042 32.1034C163.188 32.392 164.327 32.7206 165.514 33.0157C166.513 33.2638 168.269 33.8567 169.284 33.8567C169.525 33.8567 169.936 33.6627 170.128 33.5704C170.936 33.1816 171.809 32.9065 172.628 32.5446L175.109 31.4999C175.54 31.3249 176.275 31.0127 176.564 30.6494C176.734 30.4343 176.859 30.1491 176.962 29.8724C177.239 29.1273 178.46 24.8632 178.46 24.319C178.46 23.4479 178.32 23.1868 177.898 22.4852L176.779 20.6212C176.403 20.0395 176.075 19.2683 175.497 18.8742C175.039 18.5616 170.198 17.3783 169.233 17.092C168.709 16.9363 168.207 16.8196 167.673 16.6637C166.858 16.4262 165.238 16.1376 164.679 15.6342L164.609 15.569C164.602 15.5625 164.593 15.5531 164.586 15.5463C164.564 15.5234 164.488 15.4312 164.465 15.3961C164.39 15.2823 164.352 15.1657 164.319 15.0449C164.26 14.8232 164.19 14.3896 164.177 14.1471C164.163 13.8702 164.146 13.5035 164.105 13.2252C164.079 13.0548 164.097 12.9209 164.079 12.7539C163.973 11.7694 164.182 11.6717 164.987 11.208C165.416 10.9613 167.164 9.85411 167.657 9.85411C168.406 9.85411 168.942 10.0621 169.599 10.3526C170.153 10.5976 171.374 11.0158 171.809 11.307C172.317 11.6477 172.503 13.1087 173.171 13.1087C173.774 13.1087 175.458 12.0763 176.185 11.6926C176.588 11.48 177.086 11.1675 176.804 10.6523C176.502 10.1025 175.558 9.00924 175.15 8.50846C174.608 7.84363 174.618 7.73151 173.597 7.52982L168.338 6.46019C167.563 6.30512 167.016 6.17763 166.268 6.47645L160.936 8.87469C160.304 9.19287 160.353 9.32461 160.009 9.89063C159.876 10.1078 159.788 10.312 159.671 10.5472C159.398 11.094 158.481 12.6297 158.481 13.2443ZM52.5254 31.5514C53.6416 31.5514 53.7326 31.6809 54.7291 31.8824C55.9008 32.119 56.2538 30.0794 56.4837 29.2717L61.9629 10.206C62.2023 9.35395 63.1162 7.23238 61.4756 7.23238C60.1869 7.23238 58.7047 7.02506 58.1479 8.0183C58.0594 8.17619 57.9939 8.42965 57.9398 8.6238C57.882 8.83189 57.8093 9.05437 57.7429 9.28567L56.6099 13.1701C56.3481 14.0486 56.1066 14.8683 55.8513 15.7566L53.0044 25.4308C52.8271 26.0565 52.4047 26.1025 52.273 25.5206L51.8887 23.3737C51.5263 21.5553 51.2182 19.5402 50.872 17.7003C50.519 15.8245 50.2182 13.8524 49.8545 12.0278C49.669 11.0965 49.5221 10.1513 49.3422 9.19518C49.2023 8.45117 49.1947 7.72063 48.6104 7.44088C48.0555 7.17523 46.7948 7.33119 46.2684 7.25149C45.9121 7.19753 44.4059 7.23238 43.8466 7.23238C42.9849 7.23238 42.8841 7.73075 43.0598 8.42593L47.9418 27.9081C48.065 28.4009 48.6174 30.9995 48.9214 31.3584C49.7247 32.3074 51.3393 31.5514 52.5254 31.5514ZM85.0261 15.5949V30.9186C85.0261 32.9724 85.9745 32.6815 88.1452 32.6815C89.4293 32.6815 89.2948 31.2634 89.3728 30.5189L90.5396 17.2208C90.5821 16.4538 90.8152 15.3755 90.4841 14.9736C90.1548 14.5741 89.87 14.6002 89.1848 14.6005L85.8253 14.6763C85.3437 14.7726 85.0261 15.1121 85.0261 15.5949ZM87.7835 12.6115C88.6936 12.6115 89.2483 12.5186 89.9991 11.9794C90.4153 11.6807 90.8789 11.0971 91.0712 10.6104C91.4143 9.74185 91.4564 8.79973 91.0389 7.95486C90.8451 7.56262 90.6723 7.29582 90.3714 6.99508C89.0646 5.68823 86.9994 5.68093 85.7154 6.97239C84.7145 7.9791 84.4942 9.18904 84.9632 10.5501C85.0415 10.7774 85.1214 10.9021 85.2372 11.0896C85.4435 11.4232 85.7153 11.7012 86.0133 11.9407C86.4254 12.2718 87.2053 12.6115 87.7835 12.6115ZM179.364 9.85411C179.364 6.11239 184.427 6.11687 184.427 9.85411C184.427 11.8391 182.533 13.0441 180.856 12.2951C180.718 12.2336 180.563 12.1533 180.448 12.07C179.793 11.5952 179.364 10.8262 179.364 9.85411ZM178.641 9.49248C178.641 10.2086 178.631 10.643 178.957 11.3014C180.011 13.4349 182.766 13.622 184.19 12.1939C184.338 12.0458 184.417 11.9548 184.544 11.7792C185.063 11.0624 185.15 10.4561 185.15 9.58296C185.15 7.94576 183.708 6.46403 182.076 6.46403C181.047 6.46403 180.312 6.66867 179.579 7.4018C179.071 7.90924 178.641 8.69887 178.641 9.49248Z" fill="#101010" fill-opacity="0.25"/>
<path fill-rule="evenodd" clip-rule="evenodd" d="M182.031 9.58296H181.263V8.54331C182.03 8.54331 182.754 8.39954 182.754 9.08575C182.754 9.46595 182.413 9.58296 182.031 9.58296ZM180.63 11.7075H181.263V10.1254C182.025 10.1254 181.712 10.028 182.266 10.885C182.445 11.1616 182.601 11.4173 182.754 11.7075H183.433C183.39 11.5233 183.074 11.0587 182.954 10.8752C182.772 10.5974 182.614 10.3428 182.438 10.0801C183.046 9.93843 183.387 9.75261 183.387 9.04052C183.387 7.7374 181.9 8.00088 180.63 8.00088V11.7075Z" fill="#101010" fill-opacity="0.25"/>
</svg>