<svg xmlns="http://www.w3.org/2000/svg" viewBox="0 0 37.123 37.119" overflow="visible" id="svg1689486090_14483"><path d="M 16.14 0.023 C 15.071 0.049 14.287 0.087 12.85 0.175 C 12.185 0.215 11.459 0.273 10.949 0.324 C 10.82 0.338 10.552 0.364 10.354 0.383 C 9.521 0.464 8.285 0.621 7.764 0.709 C 7.654 0.728 7.494 0.754 7.402 0.767 C 7.285 0.785 7.169 0.804 7.052 0.826 C 6.95 0.845 6.777 0.877 6.668 0.896 C 6.282 0.961 5.627 1.095 5.256 1.183 C 5.153 1.209 4.969 1.253 4.847 1.281 C 4.726 1.309 4.617 1.335 4.603 1.337 C 3.919 1.5 3.24 1.829 2.717 2.256 C 2.209 2.669 1.754 3.336 1.525 3.999 C 1.488 4.102 1.45 4.207 1.439 4.232 C 1.4 4.321 1.227 5.067 1.103 5.679 C 1.082 5.792 1.058 5.905 1.033 6.017 C 1.011 6.125 0.99 6.234 0.972 6.343 C 0.961 6.429 0.946 6.515 0.928 6.6 C 0.893 6.733 0.751 7.643 0.66 8.303 C 0.585 8.827 0.519 9.352 0.461 9.878 L 0.405 10.38 C 0.399 10.424 0.377 10.65 0.356 10.882 C 0.339 11.092 0.319 11.302 0.296 11.512 C 0.247 11.941 0.126 13.81 0.065 15.128 C 0.019 16.105 -0.012 18.198 0.004 19.339 C 0.021 20.762 0.055 22.034 0.088 22.477 C 0.1 22.656 0.123 23.035 0.137 23.317 C 0.151 23.599 0.17 23.961 0.182 24.122 C 0.235 24.929 0.277 25.459 0.298 25.626 C 0.31 25.729 0.338 26.002 0.356 26.231 C 0.375 26.459 0.403 26.732 0.415 26.837 C 0.429 26.942 0.455 27.168 0.473 27.342 C 0.532 27.894 0.576 28.256 0.613 28.496 C 0.632 28.625 0.664 28.844 0.683 28.986 C 0.751 29.499 0.83 29.999 0.916 30.456 C 0.935 30.558 0.965 30.731 0.987 30.841 C 1.026 31.074 1.117 31.539 1.182 31.833 C 1.407 32.861 1.504 33.169 1.768 33.676 C 1.84 33.815 1.934 33.979 1.976 34.038 C 2.015 34.096 2.074 34.179 2.104 34.224 C 2.237 34.422 2.617 34.809 2.827 34.959 C 2.862 34.984 2.93 35.033 2.974 35.069 C 3.021 35.106 3.065 35.134 3.077 35.134 C 3.086 35.134 3.11 35.15 3.128 35.169 C 3.219 35.258 3.861 35.563 4.136 35.645 C 4.187 35.661 4.25 35.682 4.276 35.694 C 4.337 35.722 4.68 35.808 5.093 35.901 C 5.272 35.943 5.457 35.988 5.501 36 C 5.608 36.027 6.285 36.163 6.796 36.256 C 7.09 36.309 7.662 36.401 8.021 36.452 C 8.156 36.47 8.328 36.496 8.405 36.51 C 8.688 36.559 9.855 36.695 10.587 36.765 L 11.311 36.834 C 11.53 36.858 11.754 36.877 12.827 36.953 C 13.099 36.972 13.371 36.987 13.643 37 C 13.932 37.014 14.337 37.035 14.541 37.047 C 16.203 37.143 20.953 37.143 22.591 37.047 C 22.796 37.033 23.2 37.014 23.489 37 C 23.975 36.978 24.462 36.947 24.947 36.907 C 25.946 36.83 27.414 36.687 27.91 36.618 C 28.053 36.597 28.297 36.564 28.458 36.543 C 29.053 36.466 29.87 36.342 30.336 36.256 C 30.769 36.178 31.201 36.092 31.632 36 C 31.675 35.988 31.86 35.943 32.039 35.901 C 32.443 35.81 32.793 35.722 32.856 35.694 C 32.934 35.666 33.012 35.639 33.089 35.612 C 33.281 35.549 33.915 35.248 33.969 35.196 C 33.985 35.18 34.032 35.145 34.071 35.122 C 34.254 35.008 34.337 34.943 34.504 34.793 C 34.69 34.623 34.949 34.343 35.012 34.247 C 35.033 34.214 35.089 34.135 35.136 34.072 C 35.17 34.031 35.199 33.987 35.224 33.939 C 35.224 33.93 35.262 33.864 35.306 33.795 C 35.351 33.725 35.404 33.622 35.425 33.566 C 35.448 33.512 35.471 33.454 35.481 33.442 C 35.525 33.384 35.688 32.92 35.758 32.656 C 35.868 32.248 36.074 31.284 36.148 30.829 C 36.167 30.713 36.188 30.603 36.195 30.585 C 36.216 30.533 36.344 29.733 36.461 28.916 C 36.486 28.736 36.512 28.557 36.519 28.52 C 36.538 28.412 36.621 27.696 36.659 27.318 C 36.678 27.132 36.704 26.917 36.717 26.84 C 36.732 26.763 36.757 26.511 36.776 26.28 C 36.795 26.049 36.82 25.764 36.832 25.65 C 36.846 25.533 36.867 25.268 36.881 25.055 C 36.895 24.843 36.916 24.581 36.927 24.472 C 36.941 24.362 36.967 23.958 36.986 23.574 C 37.007 23.188 37.03 22.715 37.044 22.524 C 37.149 20.827 37.149 16.376 37.044 14.626 C 37.032 14.427 37.011 14.038 36.998 13.763 C 36.983 13.488 36.962 13.123 36.951 12.958 C 36.936 12.79 36.906 12.377 36.881 12.036 C 36.864 11.799 36.845 11.562 36.822 11.325 C 36.805 11.158 36.789 10.991 36.776 10.823 C 36.757 10.599 36.736 10.389 36.729 10.356 C 36.707 10.197 36.687 10.038 36.671 9.878 C 36.61 9.32 36.535 8.705 36.519 8.632 C 36.497 8.496 36.478 8.359 36.46 8.222 C 36.308 7.101 36.108 5.988 35.859 4.885 C 35.793 4.587 35.716 4.286 35.691 4.232 C 35.673 4.186 35.656 4.14 35.642 4.092 C 35.591 3.92 35.331 3.343 35.266 3.252 C 35.211 3.171 35.157 3.09 35.103 3.008 C 34.937 2.758 34.513 2.315 34.258 2.128 C 33.755 1.757 33.194 1.505 32.471 1.328 C 32.347 1.297 32.222 1.266 32.098 1.234 C 32.012 1.209 31.839 1.171 31.468 1.094 C 31.363 1.072 31.258 1.049 31.153 1.026 C 30.703 0.917 29.237 0.679 28.284 0.557 C 28.143 0.542 28.003 0.522 27.864 0.499 C 27.793 0.485 27.455 0.45 26.767 0.383 C 26.575 0.364 26.312 0.336 26.184 0.324 C 26.056 0.31 25.824 0.289 25.67 0.275 C 25.516 0.264 25.264 0.243 25.11 0.231 C 24.588 0.186 23.137 0.103 22.334 0.068 C 20.782 0 17.917 -0.021 16.14 0.023 Z M 5.86 15.788 C 5.874 15.799 5.942 15.821 6.009 15.837 C 6.136 15.868 6.313 15.949 6.446 16.038 C 6.551 16.108 6.798 16.374 6.847 16.467 C 6.87 16.514 6.896 16.556 6.903 16.563 C 6.91 16.57 6.931 16.616 6.95 16.668 C 6.966 16.719 6.987 16.773 6.999 16.784 C 7.029 16.829 7.064 17.106 7.064 17.311 C 7.064 17.512 7.034 17.748 6.994 17.834 C 6.868 18.123 6.807 18.219 6.649 18.387 C 6.502 18.539 6.441 18.586 6.241 18.683 C 6.078 18.765 5.96 18.807 5.867 18.816 C 5.793 18.825 5.727 18.842 5.72 18.851 C 5.704 18.879 5.197 18.879 5.197 18.851 C 5.197 18.842 5.139 18.826 5.064 18.816 C 4.995 18.808 4.927 18.792 4.862 18.77 C 4.811 18.747 4.76 18.726 4.708 18.707 C 4.675 18.696 4.644 18.682 4.615 18.665 C 4.59 18.645 4.562 18.628 4.533 18.616 C 4.397 18.548 4.118 18.238 4.036 18.068 C 3.991 17.976 3.95 17.888 3.938 17.869 C 3.858 17.711 3.845 16.987 3.919 16.819 C 3.94 16.775 3.97 16.7 3.987 16.656 C 3.997 16.623 4.012 16.592 4.029 16.563 C 4.036 16.556 4.064 16.509 4.09 16.458 C 4.134 16.371 4.411 16.072 4.451 16.072 C 4.46 16.072 4.482 16.056 4.498 16.035 C 4.542 15.986 4.768 15.877 4.906 15.842 C 4.971 15.825 5.044 15.802 5.069 15.79 C 5.095 15.779 5.158 15.767 5.209 15.76 C 5.347 15.746 5.83 15.767 5.86 15.788 Z M 31.281 17.414 L 31.281 18.592 L 26.755 18.592 L 26.755 17.015 L 27.008 16.975 C 27.565 16.888 27.913 16.83 27.933 16.816 C 27.947 16.807 28.062 16.788 28.19 16.772 C 28.318 16.756 28.435 16.734 28.447 16.725 C 28.461 16.716 28.57 16.695 28.691 16.678 C 28.809 16.665 28.926 16.645 29.042 16.618 C 29.112 16.602 29.258 16.576 29.368 16.562 C 29.478 16.548 29.587 16.527 29.613 16.517 C 29.639 16.506 29.756 16.485 29.87 16.468 C 29.987 16.455 30.117 16.434 30.161 16.419 C 30.206 16.408 30.374 16.376 30.535 16.35 C 30.696 16.324 30.906 16.289 31.002 16.273 C 31.097 16.254 31.2 16.24 31.23 16.238 L 31.281 16.236 L 31.281 17.414 Z M 11.963 18.455 L 11.963 19.852 L 14.297 19.852 L 14.297 21.929 L 11.961 21.929 L 11.97 24.091 C 11.978 26.422 11.973 26.308 12.099 26.595 C 12.195 26.816 12.465 27.043 12.698 27.099 C 12.735 27.107 12.769 27.121 12.801 27.141 C 12.845 27.175 13.79 27.175 13.833 27.138 C 13.851 27.124 13.935 27.106 14.024 27.096 L 14.18 27.08 L 14.18 29.126 L 14.117 29.154 C 14.059 29.18 13.791 29.222 13.422 29.266 C 12.897 29.327 11.94 29.334 11.884 29.275 C 11.858 29.261 11.828 29.253 11.798 29.255 C 11.707 29.255 11.329 29.184 11.301 29.163 C 11.255 29.142 11.207 29.126 11.158 29.117 C 11.11 29.106 11.064 29.09 11.019 29.07 C 10.982 29.048 10.943 29.032 10.902 29.021 C 10.865 29.011 10.83 28.996 10.797 28.977 C 10.767 28.956 10.736 28.936 10.704 28.918 C 10.51 28.816 10.452 28.779 10.349 28.692 C 10.288 28.643 10.232 28.601 10.221 28.601 C 10.197 28.599 10.02 28.405 9.88 28.228 C 9.773 28.09 9.614 27.827 9.561 27.691 C 9.548 27.659 9.532 27.627 9.514 27.598 C 9.505 27.591 9.481 27.518 9.458 27.435 C 9.442 27.367 9.421 27.301 9.397 27.236 C 9.372 27.16 9.352 27.082 9.339 27.003 C 9.319 26.905 9.298 26.809 9.276 26.711 C 9.259 26.641 9.248 25.82 9.241 24.266 L 9.231 21.929 L 7.881 21.929 L 7.881 19.852 L 9.234 19.852 L 9.234 17.5 L 9.392 17.484 C 9.479 17.475 9.561 17.459 9.572 17.449 C 9.586 17.44 9.701 17.419 9.829 17.402 C 9.957 17.386 10.074 17.363 10.085 17.354 C 10.099 17.344 10.247 17.318 10.412 17.298 C 10.58 17.274 10.727 17.249 10.738 17.239 C 10.753 17.23 10.83 17.213 10.914 17.206 C 11.023 17.193 11.132 17.176 11.24 17.153 C 11.49 17.102 11.926 17.034 11.947 17.046 C 11.956 17.05 11.963 17.685 11.963 18.454 Z M 19.698 19.63 C 20.024 19.649 20.393 19.692 20.421 19.712 C 20.462 19.73 20.505 19.741 20.549 19.745 C 20.682 19.766 21.007 19.862 21.202 19.941 C 21.366 20.006 21.73 20.188 21.786 20.235 C 21.805 20.249 21.846 20.277 21.879 20.291 C 21.912 20.307 22.015 20.389 22.105 20.468 C 22.196 20.55 22.281 20.62 22.292 20.624 C 22.327 20.64 22.742 21.145 22.742 21.172 C 22.754 21.201 22.77 21.228 22.789 21.252 C 22.838 21.322 23.046 21.726 23.046 21.751 C 23.046 21.761 23.064 21.812 23.09 21.865 C 23.113 21.92 23.141 22.001 23.151 22.045 C 23.158 22.082 23.169 22.117 23.186 22.15 C 23.195 22.162 23.216 22.236 23.232 22.313 C 23.246 22.39 23.265 22.47 23.272 22.488 C 23.281 22.507 23.302 22.607 23.321 22.71 C 23.349 22.864 23.356 23.445 23.365 26.016 L 23.375 29.138 L 20.829 29.138 L 20.827 28.863 C 20.824 28.702 20.818 28.542 20.808 28.382 L 20.794 28.172 L 20.726 28.265 C 20.619 28.408 20.267 28.743 20.126 28.837 C 19.821 29.037 19.739 29.086 19.655 29.114 C 19.604 29.128 19.536 29.157 19.504 29.175 C 19.442 29.201 19.378 29.22 19.312 29.233 C 19.26 29.243 19.209 29.259 19.16 29.28 C 19.042 29.369 17.572 29.367 17.457 29.278 C 17.446 29.268 17.361 29.247 17.271 29.231 C 17.191 29.218 17.113 29.198 17.037 29.17 C 17 29.154 16.9 29.112 16.818 29.079 C 16.724 29.039 16.633 28.994 16.543 28.944 C 16.481 28.906 16.418 28.869 16.354 28.835 C 16.256 28.781 16.223 28.751 15.957 28.485 C 15.684 28.211 15.649 28.174 15.649 28.148 C 15.649 28.139 15.619 28.088 15.584 28.034 C 15.539 27.966 15.499 27.894 15.465 27.82 C 15.439 27.761 15.412 27.702 15.383 27.645 C 15.356 27.585 15.336 27.522 15.323 27.458 C 15.313 27.406 15.297 27.355 15.276 27.306 C 15.251 27.274 15.206 26.942 15.206 26.798 C 15.206 26.73 15.194 26.662 15.18 26.649 C 15.152 26.621 15.16 26.527 15.231 25.965 C 15.246 25.855 15.267 25.755 15.276 25.743 C 15.285 25.729 15.306 25.669 15.32 25.605 C 15.351 25.484 15.414 25.326 15.479 25.206 L 15.542 25.085 C 15.556 25.055 15.575 25.032 15.586 25.032 C 15.596 25.032 15.602 25.018 15.602 25.001 C 15.602 24.976 15.859 24.642 15.904 24.612 C 15.919 24.597 15.93 24.579 15.936 24.558 C 15.948 24.531 15.971 24.51 15.999 24.502 C 16.025 24.495 16.046 24.481 16.046 24.472 C 16.046 24.448 16.438 24.14 16.571 24.063 C 16.666 24.005 16.881 23.895 17.194 23.746 C 17.238 23.723 17.674 23.583 17.866 23.529 C 17.936 23.508 18.073 23.48 18.169 23.466 C 18.264 23.45 18.356 23.431 18.367 23.422 C 18.381 23.413 18.521 23.391 18.682 23.377 C 18.843 23.363 19.042 23.34 19.126 23.329 C 19.457 23.28 20.621 23.289 20.745 23.34 C 20.787 23.359 20.789 23.349 20.773 23.151 C 20.763 23.037 20.747 22.939 20.737 22.932 C 20.726 22.925 20.712 22.881 20.703 22.834 C 20.687 22.747 20.598 22.559 20.514 22.43 C 20.46 22.349 20.234 22.115 20.208 22.115 C 20.176 22.102 20.146 22.084 20.119 22.062 C 20.008 21.983 19.883 21.926 19.751 21.894 C 19.702 21.884 19.662 21.868 19.662 21.858 C 19.662 21.756 18.155 21.74 17.702 21.84 C 17.644 21.852 17.509 21.877 17.399 21.896 C 17.29 21.914 17.18 21.94 17.155 21.952 C 17.094 21.973 17.031 21.988 16.968 21.999 C 16.904 22.009 16.842 22.025 16.781 22.045 C 16.713 22.069 16.643 22.088 16.573 22.103 C 16.484 22.124 16.4 22.148 16.387 22.16 C 16.341 22.181 16.293 22.197 16.244 22.208 C 16.196 22.22 16.149 22.236 16.104 22.257 C 16.059 22.277 16.012 22.293 15.964 22.304 C 15.894 22.32 15.826 22.344 15.761 22.374 C 15.729 22.392 15.696 22.407 15.661 22.418 C 15.654 22.418 15.649 21.931 15.649 21.336 C 15.649 20.494 15.656 20.249 15.68 20.23 C 15.725 20.205 15.774 20.187 15.825 20.177 C 15.89 20.162 15.952 20.141 15.964 20.132 C 15.978 20.123 16.055 20.095 16.139 20.074 C 16.223 20.05 16.303 20.025 16.314 20.016 C 16.328 20.004 16.401 19.985 16.475 19.969 C 16.552 19.952 16.632 19.932 16.65 19.92 C 16.671 19.911 16.767 19.885 16.863 19.864 C 16.937 19.85 17.01 19.833 17.084 19.815 C 17.181 19.796 17.278 19.78 17.376 19.768 C 17.482 19.755 17.587 19.736 17.691 19.712 C 17.826 19.67 19.049 19.593 19.324 19.61 L 19.697 19.63 Z M 6.831 24.495 L 6.831 29.137 L 4.101 29.137 L 4.101 19.853 L 6.831 19.853 L 6.831 24.496 Z M 27.455 22.745 C 27.455 25.507 27.467 26.042 27.523 26.117 C 27.541 26.148 27.553 26.183 27.558 26.219 C 27.59 26.394 27.742 26.649 27.915 26.821 C 28.006 26.915 28.108 26.996 28.141 27.005 C 28.176 27.012 28.202 27.027 28.202 27.036 C 28.202 27.045 28.284 27.078 28.383 27.11 C 28.533 27.157 28.613 27.166 28.846 27.166 C 29.009 27.166 29.151 27.155 29.184 27.141 C 29.236 27.118 29.29 27.099 29.345 27.085 C 29.403 27.068 29.508 27.02 29.578 26.973 C 29.709 26.889 29.951 26.665 29.951 26.627 C 29.969 26.587 29.993 26.549 30.021 26.515 C 30.061 26.464 30.092 26.413 30.092 26.399 C 30.101 26.361 30.116 26.324 30.136 26.289 C 30.164 26.234 30.185 26.175 30.199 26.114 C 30.202 26.074 30.214 26.035 30.234 26 C 30.292 25.925 30.302 25.454 30.302 22.717 L 30.302 19.852 L 33.031 19.852 L 33.031 29.138 L 31.739 29.138 C 30.729 29.138 30.44 29.131 30.426 29.107 C 30.416 29.094 30.405 28.872 30.4 28.618 C 30.395 28.365 30.384 28.158 30.375 28.158 C 30.365 28.158 30.337 28.186 30.309 28.221 C 30.178 28.398 29.973 28.599 29.651 28.865 C 29.604 28.902 29.509 28.953 29.299 29.056 C 29.203 29.103 29.098 29.156 29.066 29.173 C 29.001 29.199 28.935 29.218 28.867 29.231 C 28.791 29.247 28.722 29.268 28.716 29.278 C 28.692 29.313 28.279 29.348 27.871 29.348 C 27.47 29.348 27.143 29.32 27.047 29.28 C 26.982 29.256 26.916 29.236 26.849 29.219 C 26.789 29.206 26.73 29.186 26.674 29.161 C 26.636 29.14 26.595 29.123 26.553 29.112 C 26.497 29.098 26.453 29.077 26.453 29.068 C 26.453 29.058 26.411 29.037 26.359 29.021 C 26.308 29.005 26.266 28.983 26.266 28.974 C 26.266 28.965 26.241 28.946 26.21 28.933 C 26.009 28.841 25.554 28.415 25.363 28.139 C 25.246 27.971 25.066 27.635 25.029 27.512 C 25.013 27.458 24.993 27.405 24.971 27.353 C 24.947 27.292 24.928 27.23 24.913 27.166 C 24.902 27.113 24.886 27.061 24.866 27.01 C 24.854 26.989 24.833 26.879 24.82 26.765 C 24.806 26.653 24.78 26.538 24.766 26.513 C 24.744 26.478 24.735 25.645 24.731 23.158 L 24.724 19.852 L 27.455 19.852 L 27.455 22.745 Z" fill="var(--token-625c0892-ff02-4987-8809-8c02caf18755, rgba(0, 0, 0, 0.25))"/></svg>