<svg xmlns="http://www.w3.org/2000/svg" viewBox="0 0 125.8 36.92" overflow="visible" id="svg1102742307_21216"><g><path d="M 0 0 L 125.8 0 L 125.8 36.92 L 0 36.92 Z" fill="transparent"/><path d="M 45.557 30.887 C 47.311 31.215 49.004 31.81 50.576 32.653 C 52.289 33.546 54.221 34.829 56.011 36.284 C 54.503 35.756 52.984 35.259 51.455 34.793 C 50.388 34.479 50.017 34.41 49.697 34.369 C 49.375 34.328 49.099 34.305 48.824 34.305 C 48.152 34.303 47.481 34.365 46.821 34.488 C 45.399 34.718 43.549 35.411 41.789 36.585 C 41.142 35.92 40.437 35.312 39.791 34.858 C 39.153 34.406 38.573 34.108 37.953 33.865 C 37.262 33.59 36.54 33.399 35.804 33.296 C 34.94 33.167 33.868 33.087 32.807 33.096 C 31.105 33.038 29.406 33.167 26.605 33.746 C 23.801 34.324 19.893 35.353 17.098 35.941 C 14.304 36.522 12.624 36.649 10.943 36.594 C 9.871 36.594 8.799 36.519 7.897 36.385 C 7.12 36.277 6.356 36.097 5.613 35.846 C 4.973 35.631 4.439 35.387 3.961 35.117 C 3.49 34.848 3.077 34.557 2.713 34.245 C 2.351 33.933 2.036 33.601 1.759 33.241 C 1.48 32.882 1.235 32.493 1.02 32.075 C 0.805 31.655 0.625 31.203 0.472 30.708 C 0.153 29.663 -0.004 28.414 0 27.17 C 0.005 26.17 0.114 25.174 0.324 24.196 C 0.599 22.937 0.977 21.702 1.454 20.504 C 2.53 17.788 4.515 14.322 7.169 11.088 C 8.441 9.531 9.823 8.067 11.306 6.708 C 12.577 5.546 13.936 4.483 15.371 3.529 C 16.641 2.691 17.797 2.076 18.85 1.624 C 19.904 1.165 20.854 0.872 21.709 0.681 C 22.565 0.496 23.328 0.421 23.908 0.407 C 24.353 0.388 24.799 0.432 25.233 0.537 C 25.558 0.622 25.869 0.753 26.157 0.927 C 26.412 1.085 26.64 1.283 26.831 1.515 C 27.62 2.511 27.46 3.674 27.1 4.801 C 26.905 5.352 26.621 5.867 26.258 6.326 C 25.401 7.326 24.479 7.697 23.663 7.143 C 23.399 7.001 23 6.466 23.043 6.172 C 23.054 5.769 23.255 5.389 23.6 4.981 C 23.733 4.827 23.898 4.65 24.129 4.448 C 24.625 4.011 25.287 3.569 25.893 3.295 C 25.893 3.114 25.885 2.933 25.874 2.796 C 25.827 2.491 25.801 2.322 25.573 2.113 C 25.335 1.94 25.123 1.931 24.848 1.925 C 24.427 1.925 24.009 1.975 23.541 2.091 C 23.002 2.229 22.477 2.422 21.977 2.666 C 21.268 3.016 20.593 3.429 19.959 3.901 C 19.005 4.603 18.108 5.381 17.278 6.226 C 16.076 7.445 14.958 8.746 13.932 10.117 C 12.645 11.834 11.462 13.626 10.391 15.486 C 9.374 17.241 8.473 19.061 7.692 20.933 C 7.015 22.561 6.6 23.907 6.345 24.974 C 6.088 26.041 5.991 26.831 5.984 27.627 C 5.982 28.142 6.022 28.656 6.104 29.164 C 6.18 29.624 6.301 30.076 6.465 30.513 C 6.617 30.919 6.812 31.308 7.048 31.672 C 7.278 32.036 7.548 32.372 7.854 32.675 C 8.163 32.988 8.519 33.274 8.929 33.537 C 9.378 33.82 9.855 34.057 10.351 34.245 C 10.955 34.469 11.579 34.635 12.215 34.74 C 12.923 34.859 13.719 34.925 14.525 34.925 C 16.139 34.892 17.747 34.702 20.969 33.945 C 24.193 33.188 29.028 31.863 32.392 31.133 C 35.757 30.401 37.647 30.264 39.531 30.364 C 41.551 30.339 43.568 30.516 45.552 30.892 Z M 89.395 28.79 C 89.833 28.126 90.239 27.44 90.61 26.737 C 90.08 26.592 89.552 26.408 89.155 26.244 C 88.756 26.076 88.481 25.922 88.247 25.768 C 88.014 25.615 87.821 25.465 87.653 25.31 C 87.294 24.981 87.055 24.651 86.868 24.308 C 85.338 25.625 84.244 27.18 83.709 28.643 C 83.553 29.076 83.444 29.481 83.375 29.869 C 83.313 30.214 83.279 30.564 83.273 30.914 C 83.251 31.334 83.336 31.752 83.519 32.131 C 83.593 32.29 83.689 32.437 83.803 32.57 C 84.144 32.96 84.528 33.12 84.911 33.12 C 85.048 33.115 85.182 33.084 85.308 33.029 C 85.465 32.968 85.671 32.869 85.927 32.694 C 86.261 32.461 86.577 32.202 86.87 31.919 C 87.238 31.569 87.661 31.115 88.093 30.582 C 88.529 30.048 88.976 29.434 89.404 28.781 Z M 110.368 29.626 L 114.41 22.785 C 114.594 22.474 114.754 22.156 114.872 21.886 C 114.968 21.673 115.044 21.452 115.099 21.225 C 115.151 20.925 115.263 20.669 114.989 20.456 C 114.805 20.356 114.642 20.356 114.406 20.354 C 114.262 20.357 114.121 20.385 113.987 20.437 C 113.751 20.522 113.525 20.632 113.313 20.765 C 112.909 21.022 112.524 21.309 112.163 21.624 C 111.603 22.117 111.07 22.64 110.566 23.191 C 109.994 23.819 109.409 24.538 108.899 25.226 C 108.392 25.924 107.957 26.593 107.606 27.202 C 107.253 27.81 106.982 28.36 106.771 28.838 C 106.561 29.326 106.413 29.737 106.304 30.106 C 106.207 30.429 106.134 30.759 106.084 31.093 C 106.044 31.383 106.025 31.641 106.025 31.831 C 106.032 32.259 106.026 32.491 106.313 32.779 C 106.648 33.048 107.135 33.009 107.567 32.83 C 107.814 32.717 108.041 32.565 108.24 32.381 C 108.574 32.084 108.878 31.754 109.148 31.397 C 109.513 30.925 109.97 30.289 110.366 29.619 Z M 91.901 22.949 C 91.928 22.734 91.943 22.52 91.943 22.29 C 91.943 22.064 91.934 21.825 91.913 21.642 C 91.849 21.205 91.808 20.928 91.476 20.613 C 91.137 20.355 90.84 20.345 90.449 20.334 C 90.025 20.331 89.61 20.452 89.255 20.683 C 87.919 21.602 87.845 22.789 88.293 23.938 C 88.404 24.174 88.557 24.388 88.744 24.571 C 88.862 24.686 88.988 24.791 89.123 24.887 C 89.325 25.026 89.54 25.145 89.765 25.242 C 90.134 25.403 90.512 25.541 90.897 25.656 C 91.215 24.981 91.505 24.289 91.669 23.838 C 91.833 23.386 91.871 23.176 91.901 22.96 Z M 51.793 21.602 C 51.471 22.313 51.363 22.606 51.3 22.778 C 51.187 23.086 51.242 23.091 51.242 23.225 C 51.232 23.462 51.496 23.656 51.655 23.649 C 51.942 23.689 52.234 23.617 52.471 23.449 C 52.644 23.335 52.805 23.204 52.952 23.058 C 53.162 22.859 53.436 22.574 54.038 21.83 C 54.871 20.785 55.683 19.723 56.472 18.644 L 57.221 18.8 C 56.602 20.038 55.902 21.233 55.125 22.379 C 54.513 23.28 53.826 24.128 53.07 24.913 C 52.516 25.488 51.902 26.001 51.238 26.444 C 50.142 27.152 49.193 27.459 48.236 27.463 C 47.99 27.463 47.744 27.452 47.547 27.433 C 47.056 27.363 46.673 27.303 46.281 26.894 C 46.125 26.707 46.062 26.564 45.994 26.354 C 45.953 26.227 45.914 26.071 45.884 25.82 C 45.86 25.572 45.839 25.226 45.839 24.882 C 45.269 25.421 44.665 25.926 44.168 26.289 C 43.786 26.577 43.375 26.824 42.942 27.028 C 41.96 27.467 41.167 27.597 40.141 27.348 C 39.831 27.244 39.57 27.114 39.291 26.774 C 39.217 26.683 39.148 26.575 39.079 26.445 C 39.014 26.313 38.953 26.16 38.887 25.96 C 38.824 25.76 38.763 25.517 38.715 24.973 C 38.671 24.431 38.643 23.592 38.647 22.757 C 37.863 23.639 37.037 24.481 36.17 25.282 C 35.635 25.78 35.056 26.229 34.441 26.624 C 33.036 27.506 31.956 27.761 30.712 27.777 C 30.23 27.777 29.749 27.71 29.317 27.582 C 28.889 27.457 28.51 27.267 28.186 27.037 C 27.862 26.806 27.587 26.526 27.36 26.207 C 26.622 25.171 26.579 23.839 26.757 22.526 C 26.816 22.111 26.895 21.718 27.248 20.821 C 27.755 19.571 28.311 18.341 28.914 17.133 L 26.216 17.742 C 25.256 19.342 24.221 20.899 23.346 22.077 C 22.675 23.001 21.934 23.872 21.129 24.683 C 20.615 25.209 20.057 25.689 19.461 26.12 C 19.031 26.433 18.572 26.704 18.089 26.927 C 17.7 27.106 17.294 27.244 16.876 27.341 C 16.489 27.431 16.116 27.471 15.772 27.471 C 15.427 27.471 15.115 27.427 14.835 27.352 C 14.325 27.217 13.867 26.933 13.518 26.537 C 13.351 26.344 13.212 26.129 13.105 25.898 C 12.989 25.659 12.899 25.39 12.84 25.09 C 12.777 24.791 12.743 24.46 12.748 24.022 C 12.759 23.493 12.813 22.966 12.91 22.446 C 13.034 21.776 13.213 21.117 13.446 20.477 C 13.963 19.027 14.877 17.289 16.135 15.62 C 16.773 14.774 17.47 13.975 18.222 13.23 C 18.951 12.506 19.693 11.885 20.384 11.393 C 21.073 10.895 21.71 10.526 22.28 10.253 C 22.853 9.978 23.358 9.803 23.804 9.693 C 24.684 9.49 25.416 9.434 26.283 9.769 C 26.643 9.915 26.963 10.148 27.213 10.447 C 27.348 10.607 27.463 10.784 27.556 10.972 C 27.766 11.424 27.875 11.916 27.874 12.415 C 27.877 12.669 27.852 12.919 27.787 13.279 C 27.724 13.636 27.621 14.107 27.459 14.671 C 27.297 15.235 27.076 15.888 26.826 16.533 C 27.345 16.415 27.855 16.255 28.35 16.057 C 28.864 15.859 29.388 15.609 30.007 15.23 C 30.626 14.851 31.343 14.338 32.307 13.515 C 33.269 12.695 34.484 11.563 35.32 10.89 C 36.154 10.219 36.613 10.005 37.026 9.841 C 37.396 9.69 37.78 9.574 38.171 9.492 C 38.533 9.416 38.894 9.383 39.188 9.383 C 39.672 9.371 40.149 9.496 40.565 9.744 C 41.757 10.528 41.883 11.571 41.764 12.46 C 41.675 13.02 41.45 13.67 41.046 14.343 C 40.918 14.553 40.78 14.747 40.643 14.917 C 39.887 15.845 39.091 16.194 38.413 15.666 C 38.176 15.494 37.999 15.257 37.93 15.028 C 37.858 14.559 37.937 13.837 38.685 13.261 C 38.981 13.041 39.315 12.876 39.669 12.774 C 39.975 12.684 40.286 12.616 40.601 12.569 C 40.601 12.389 40.586 12.209 40.571 12.082 C 40.516 11.798 40.476 11.678 40.251 11.498 C 40.067 11.375 39.896 11.355 39.7 11.348 C 39.534 11.353 39.371 11.389 39.22 11.455 C 39.021 11.534 38.763 11.668 38.405 11.917 C 38.045 12.167 37.586 12.54 37.039 13.075 C 35.931 14.142 34.542 15.871 33.617 17.385 C 33.148 18.141 32.781 18.839 32.496 19.457 C 32.208 20.077 32.004 20.619 31.855 21.097 C 31.704 21.576 31.613 21.986 31.554 22.355 C 31.464 22.979 31.389 23.49 31.573 24.129 C 31.651 24.388 31.815 24.613 32.038 24.768 C 32.528 25.077 33.169 25.086 33.768 24.947 C 34 24.892 34.246 24.807 34.52 24.67 C 34.864 24.498 35.193 24.296 35.503 24.066 C 35.9 23.779 36.381 23.397 37.167 22.541 C 37.951 21.684 39.042 20.36 40.411 18.635 C 41.778 16.912 43.426 14.79 44.563 13.47 C 45.698 12.147 46.325 11.626 46.844 11.225 C 47.257 10.899 47.689 10.598 48.139 10.327 C 49.113 9.767 49.928 9.538 50.773 9.528 C 51.026 9.529 51.279 9.546 51.53 9.579 C 51.82 9.615 52.104 9.688 52.375 9.797 C 52.851 9.985 53.314 10.202 53.763 10.447 L 54.365 9.685 L 57.957 9.685 L 53.163 18.654 C 52.623 19.777 52.096 20.907 51.778 21.618 Z M 22.175 21.685 L 22.189 21.68 C 23.122 20.338 24.016 18.97 24.872 17.578 C 24.375 17.401 23.888 17.188 23.525 16.999 C 23.161 16.809 22.915 16.64 22.581 16.336 C 22.249 16.034 21.825 15.603 21.428 15.145 C 20.73 16 20.08 16.894 19.483 17.823 C 18.94 18.677 18.525 19.447 18.238 20.086 C 17.947 20.724 17.78 21.223 17.682 21.623 C 17.599 21.923 17.549 22.232 17.534 22.544 C 17.529 22.949 17.6 23.227 17.804 23.536 C 18.382 24.274 19.197 24.225 19.901 23.935 C 20.071 23.858 20.233 23.766 20.385 23.659 C 20.596 23.501 20.796 23.329 20.984 23.144 C 21.225 22.917 21.513 22.621 22.175 21.687 Z M 47.606 20.916 L 51.35 14.379 C 51.629 13.906 51.898 13.427 52.156 12.942 C 52.327 12.621 52.352 12.531 52.373 12.431 C 52.389 12.177 52.535 11.691 52.074 11.418 C 51.816 11.31 51.526 11.31 51.268 11.418 C 51.12 11.472 50.931 11.56 50.667 11.738 C 50.403 11.91 50.056 12.17 49.597 12.599 C 49.004 13.157 48.444 13.75 47.922 14.374 C 47.29 15.125 46.606 16.027 46.018 16.885 C 45.499 17.643 45.021 18.43 44.587 19.241 C 44.223 19.92 43.984 20.467 43.817 20.917 C 43.681 21.271 43.573 21.634 43.493 22.004 C 43.435 22.293 43.411 22.52 43.411 22.69 C 43.416 23.088 43.469 23.298 43.788 23.648 C 44.073 23.916 44.475 24.021 44.855 23.927 C 45.107 23.847 45.342 23.719 45.544 23.548 C 45.726 23.398 45.899 23.238 46.063 23.069 C 46.312 22.799 46.545 22.515 46.761 22.219 C 47.027 21.854 47.331 21.4 47.613 20.931 Z M 117.132 30.173 L 117.139 30.148 C 117.754 29.372 118.345 28.576 118.908 27.761 L 119.807 27.608 C 119.182 28.84 118.487 30.034 117.723 31.185 C 117.027 32.227 116.36 33.057 115.75 33.723 C 115.241 34.289 114.683 34.81 114.084 35.28 C 113.577 35.671 113.126 35.954 112.702 36.163 C 111.641 36.661 110.845 36.873 109.822 36.628 C 109.501 36.545 109.082 36.187 108.932 35.834 C 108.872 35.714 108.817 35.581 108.768 35.404 C 108.713 35.231 108.665 35.015 108.63 34.695 C 108.591 34.378 108.571 33.956 108.571 33.533 C 108.081 34.079 107.561 34.598 107.015 35.089 C 106.566 35.484 106.24 35.715 105.946 35.894 C 105.363 36.244 104.893 36.415 104.387 36.504 C 104.157 36.546 103.923 36.569 103.689 36.572 C 103.198 36.574 102.894 36.503 102.511 36.277 C 102.314 36.155 102.132 35.997 101.945 35.737 C 101.857 35.615 101.776 35.471 101.697 35.302 C 101.618 35.13 101.547 34.93 101.481 34.683 C 101.411 34.436 101.354 34.142 101.307 33.766 C 101.266 33.39 101.239 32.93 101.239 32.467 C 100.673 33.157 100.069 33.814 99.43 34.436 C 98.983 34.873 98.503 35.273 97.993 35.634 C 96.881 36.4 95.953 36.716 94.96 36.725 C 94.669 36.724 94.384 36.683 94.124 36.609 C 93.865 36.534 93.627 36.425 93.418 36.284 C 93.204 36.147 93.017 35.984 92.854 35.797 C 92.69 35.608 92.553 35.398 92.447 35.172 C 92.336 34.942 92.251 34.689 92.195 34.409 C 92.072 33.81 92.095 33.109 92.161 32.393 C 92.196 32.011 92.248 31.622 92.484 30.692 C 92.823 29.397 93.197 28.112 93.605 26.836 L 91.807 26.836 C 91.012 28.246 90.146 29.614 89.211 30.934 C 88.536 31.896 87.793 32.809 86.988 33.665 C 86.329 34.358 85.749 34.87 85.228 35.266 C 84.707 35.663 84.241 35.945 83.818 36.155 C 82.998 36.552 82.32 36.723 81.617 36.72 C 81.272 36.714 80.937 36.664 80.623 36.56 C 80.317 36.457 80.035 36.303 79.789 36.106 C 79.543 35.912 79.333 35.675 79.16 35.403 C 78.983 35.132 78.855 34.822 78.756 34.483 C 78.665 34.138 78.618 33.76 78.618 33.311 C 78.628 32.784 78.687 32.26 78.796 31.744 C 78.943 31.04 79.149 30.349 79.411 29.679 C 79.984 28.159 81.067 26.166 82.488 24.33 C 83.147 23.476 83.865 22.669 84.636 21.915 C 85.353 21.221 86.035 20.663 86.66 20.222 C 87.187 19.846 87.747 19.516 88.332 19.238 C 88.759 19.035 89.205 18.878 89.664 18.769 C 90 18.686 90.344 18.642 90.69 18.636 C 91.41 18.64 91.948 18.772 92.6 19.405 C 92.775 19.585 92.924 19.79 93.041 20.013 C 93.463 20.769 93.506 21.717 93.381 22.576 C 93.325 22.96 93.236 23.338 93.114 23.706 C 92.951 24.218 92.687 24.928 92.392 25.625 L 94.181 25.625 C 96.292 20.673 98.94 15.967 102.077 11.593 C 103.378 9.778 104.789 8.046 106.302 6.405 C 107.382 5.229 108.546 4.135 109.787 3.131 C 110.796 2.33 111.642 1.783 112.376 1.392 C 112.98 1.061 113.617 0.797 114.277 0.604 C 115.066 0.401 115.688 0.286 116.405 0.491 C 116.616 0.557 116.814 0.657 116.993 0.788 C 117.648 1.294 117.827 1.898 117.838 2.521 C 117.839 2.702 117.826 2.882 117.798 3.06 C 117.775 3.224 117.739 3.369 117.62 3.635 C 117.504 3.897 117.306 4.283 117.087 4.652 L 115.74 4.802 C 115.978 4.179 116.204 3.542 116.321 3.181 C 116.443 2.815 116.459 2.718 116.469 2.628 C 116.499 2.305 116.547 2.141 116.164 1.849 C 116.074 1.794 115.978 1.763 115.889 1.763 C 115.702 1.767 115.516 1.804 115.251 1.913 C 114.866 2.08 114.501 2.291 114.165 2.542 C 113.693 2.878 113.083 3.377 112.318 4.136 C 111.348 5.107 110.433 6.13 109.576 7.202 C 108.402 8.669 107.292 10.186 106.248 11.749 C 105.062 13.529 103.944 15.353 102.896 17.217 C 101.818 19.125 100.809 21.072 99.873 23.054 C 101.517 21.909 103.089 20.664 104.581 19.325 C 105.957 18.082 107.257 16.757 108.472 15.356 C 109.536 14.139 110.515 12.851 111.401 11.5 L 112.899 11.349 C 111.83 13.127 110.64 14.829 109.338 16.443 C 108.12 17.944 106.921 19.187 105.161 20.654 C 103.402 22.12 101.082 23.804 98.674 25.334 C 98.311 26.464 97.986 27.608 97.751 28.544 C 97.514 29.482 97.369 30.215 97.289 30.709 C 97.15 31.554 97.112 31.796 97.279 32.35 C 97.352 32.644 97.755 33.07 98.063 33.074 C 98.241 33.105 98.425 33.084 98.593 33.016 C 98.727 32.965 98.871 32.886 99.072 32.746 C 99.273 32.604 99.524 32.402 99.962 31.896 C 100.404 31.387 101.028 30.579 102.099 29.082 C 103.171 27.584 104.689 25.402 105.76 23.999 C 106.83 22.598 107.459 21.973 107.99 21.469 C 108.519 20.963 108.965 20.578 109.364 20.266 C 109.713 19.989 110.081 19.737 110.465 19.51 C 111.596 18.843 112.647 18.506 113.783 18.493 C 113.994 18.492 114.205 18.51 114.412 18.546 C 114.666 18.589 114.913 18.665 115.147 18.772 C 115.562 18.959 115.966 19.171 116.356 19.407 L 117.404 18.498 L 120.697 18.498 L 115.006 29.146 C 114.599 29.985 114.196 30.826 113.797 31.669 C 113.463 32.383 113.541 32.225 113.511 32.339 C 113.513 32.481 113.526 32.712 113.812 32.779 C 114.101 32.828 114.307 32.75 114.592 32.61 C 114.735 32.536 114.902 32.432 115.107 32.272 C 115.384 32.057 115.646 31.824 115.892 31.574 C 116.215 31.249 116.615 30.818 117.131 30.171 Z M 26.31 14.051 L 26.31 14.061 C 26.34 13.834 26.356 13.606 26.358 13.377 C 26.328 12.765 26.377 12.209 25.77 11.586 C 25.228 11.193 24.702 11.399 24.137 11.6 C 23.958 11.676 23.771 11.776 23.604 11.885 C 23.442 11.99 23.291 12.111 23.153 12.245 C 22.248 13.142 22.289 14.05 22.897 14.918 C 22.985 15.034 23.085 15.141 23.194 15.238 C 23.332 15.364 23.48 15.479 23.635 15.581 C 23.862 15.73 24.099 15.86 24.346 15.97 C 24.709 16.13 25.08 16.267 25.46 16.381 C 25.715 15.826 25.95 15.259 26.091 14.872 C 26.195 14.607 26.268 14.332 26.309 14.051 Z M 88.045 3.319 L 88.045 3.324 C 87.181 3.793 86.351 4.322 85.562 4.91 C 84.771 5.508 84.025 6.167 83.411 6.766 C 82.802 7.374 82.328 7.93 81.948 8.429 C 81.573 8.929 81.291 9.375 81.073 9.777 C 80.853 10.18 80.695 10.543 80.576 10.871 C 80.314 11.699 80.14 12.343 80.349 13.097 C 80.447 13.338 80.617 13.542 80.836 13.682 C 81.528 14.08 82.28 14.035 83.06 13.707 C 83.806 13.366 84.497 12.784 85.261 11.717 C 85.614 11.217 85.928 10.689 86.2 10.141 C 86.563 9.418 86.877 8.671 87.14 7.906 C 87.417 7.09 87.642 6.256 87.814 5.411 C 87.956 4.722 88.034 4.022 88.046 3.319 Z M 61.099 9.708 L 64.996 9.708 L 63.197 13.05 L 59.454 13.05 Z M 111.274 6.335 C 113.112 6.356 114.953 6.146 116.562 5.751 C 118.173 5.355 119.55 4.778 121.076 3.882 C 122.757 2.873 124.339 1.706 125.8 0.397 C 125.426 1.405 124.913 2.356 124.277 3.223 C 123.526 4.25 122.656 5.184 121.686 6.007 C 119.607 7.794 116.856 9.193 114.333 9.808 C 113.139 10.118 111.911 10.276 110.678 10.279 C 110.029 10.279 109.525 10.262 109.065 10.213 C 108.803 10.187 108.541 10.157 108.28 10.124 L 111.274 6.323 Z M 80.065 23.631 L 80.08 23.619 C 79.936 24.382 79.726 25.176 79.411 26.004 C 78.801 27.65 77.766 29.496 76.236 31.274 C 74.754 33.02 72.766 34.633 70.953 35.595 C 70.172 36.017 69.35 36.356 68.498 36.606 C 67.083 37.015 65.834 36.991 64.478 36.642 C 63.826 36.461 63.202 36.196 62.636 35.863 C 62.069 35.526 61.559 35.12 61.122 34.662 C 60.686 34.205 60.32 33.701 60.031 33.161 C 59.74 32.619 59.524 32.05 59.376 31.451 C 59.231 30.851 59.159 30.229 59.163 29.408 C 59.167 28.585 59.249 27.563 59.436 26.466 C 59.622 25.368 59.91 24.191 60.339 22.934 C 60.814 21.541 61.4 20.187 62.089 18.886 C 62.928 17.296 63.884 15.771 64.95 14.323 C 66.197 12.627 67.566 11.024 69.046 9.527 C 70.578 7.969 72.224 6.528 73.969 5.215 C 75.468 4.079 77.059 3.071 78.728 2.203 C 80.166 1.459 81.412 0.99 82.457 0.691 C 83.9 0.297 84.982 0.168 86.2 0.347 C 86.6 0.408 86.99 0.519 87.361 0.677 C 88.014 0.957 88.648 1.277 89.262 1.634 C 90.424 1.227 91.6 0.859 92.393 0.644 C 93.907 0.212 95.503 0.149 97.047 0.458 C 97.74 0.595 98.5 0.807 99.375 1.142 C 100.419 1.547 101.428 2.035 102.393 2.604 C 103.704 3.369 104.969 4.212 106.181 5.128 L 102.888 8.627 C 100.838 7.139 98.698 5.773 97.083 4.875 C 95.467 3.976 94.372 3.543 93.208 3.257 C 92.039 2.967 90.798 2.829 89.557 2.847 C 89.555 3.026 89.563 3.206 89.582 3.384 C 89.607 3.628 89.652 3.974 89.675 4.206 C 89.7 4.437 89.706 4.555 89.706 4.675 C 89.706 5.144 89.663 5.617 89.575 6.13 C 89.389 7.195 88.98 8.433 88.349 9.65 C 88.018 10.29 87.629 10.919 87.201 11.507 C 86.78 12.088 86.328 12.621 85.878 13.072 C 85.476 13.483 85.04 13.859 84.575 14.196 C 84.214 14.457 83.831 14.685 83.43 14.877 C 82.756 15.186 82.186 15.322 81.616 15.322 C 81.341 15.322 81.069 15.293 80.829 15.241 C 80.583 15.185 80.378 15.111 80.2 15.011 C 79.856 14.831 79.571 14.556 79.379 14.218 C 79.287 14.049 79.209 13.849 79.154 13.63 C 79.1 13.4 79.071 13.15 79.076 12.802 C 79.087 12.372 79.133 11.944 79.213 11.522 C 79.321 10.999 79.478 10.487 79.682 9.994 C 79.937 9.388 80.246 8.805 80.606 8.255 C 81.394 7.022 82.648 5.578 84.408 4.194 C 85.284 3.505 86.274 2.841 87.307 2.258 C 85.908 2.233 84.655 2.27 83.323 2.78 C 82.758 2.989 82.209 3.242 81.683 3.536 C 80.995 3.922 80.336 4.357 79.711 4.838 C 78.854 5.498 78.043 6.215 77.282 6.985 C 76.219 8.059 75.228 9.203 74.315 10.407 C 73.041 12.059 71.864 13.784 70.79 15.572 C 69.527 17.665 68.378 19.826 67.35 22.044 C 66.381 24.152 65.69 26.034 65.279 27.356 C 64.866 28.684 64.739 29.451 64.709 30.229 C 64.711 30.946 64.897 31.65 65.249 32.275 C 65.438 32.614 65.67 32.927 65.938 33.207 C 66.447 33.744 67.087 34.139 67.795 34.353 C 68.114 34.447 68.446 34.493 68.778 34.49 C 69.175 34.48 69.567 34.412 69.944 34.287 C 70.903 33.999 72.28 33.266 73.567 32.232 C 74.867 31.187 76.007 29.957 76.949 28.58 C 77.364 27.962 77.705 27.363 77.981 26.789 C 78.237 26.253 78.454 25.699 78.629 25.131 C 78.978 23.94 79.156 22.901 79.046 21.743 C 78.983 21.432 78.909 21.184 78.62 20.886 C 77.973 20.356 77.409 20.451 76.708 20.675 C 76.236 20.865 75.771 21.192 75.293 21.783 C 75.106 22.015 74.937 22.26 74.785 22.517 C 74.617 22.811 74.446 23.146 74.289 23.526 C 73.93 24.413 73.679 25.341 73.542 26.288 C 72.916 26.563 72.298 26.862 71.809 27.122 C 71.302 27.385 70.817 27.69 70.361 28.033 C 69.605 28.592 68.867 29.176 68.149 29.783 C 68.264 28.915 68.434 28.051 68.661 27.229 C 68.877 26.431 69.149 25.65 69.476 24.891 C 69.79 24.171 70.135 23.514 70.497 22.928 C 70.862 22.346 71.236 21.836 71.619 21.391 C 73.123 19.667 74.654 18.901 76.154 18.632 C 76.511 18.572 76.872 18.539 77.234 18.532 C 77.533 18.53 77.831 18.553 78.126 18.601 C 78.355 18.641 78.58 18.705 78.796 18.792 C 79.146 18.926 79.454 19.149 79.69 19.44 C 79.81 19.587 79.91 19.747 79.99 19.919 C 80.178 20.319 80.27 20.866 80.27 21.413 C 80.27 22.142 80.202 22.873 80.065 23.631 Z" fill="var(--token-625c0892-ff02-4987-8809-8c02caf18755, rgba(0, 0, 0, 0.25))"/></g></svg>