<svg xmlns="http://www.w3.org/2000/svg" width="86" height="28" viewBox="0 0 86 28" fill="none" id="svg1019531414_6015">
<g clip-path="url(#svg1019531414_6015_clip0_256_39)">
<path d="M74.8909 0.186787C76.1162 -0.166121 77.424 -0.0235827 78.5531 0.585946C79.6822 1.19547 80.5495 2.22715 80.9821 3.47503C81.6145 5.29218 81.1568 7.45683 79.8864 8.85407C79.4593 9.34347 78.8726 9.62727 78.4039 10.0616C78.0863 10.3339 78.2 10.9203 78.5703 11.0752C78.8213 11.22 79.1084 11.0998 79.3705 11.0578C80.7283 10.7291 82.0805 10.3715 83.4396 10.0443C83.8613 9.94623 84.3026 10.0044 84.6878 10.2089C85.0729 10.4134 85.3779 10.7514 85.5504 11.165C85.7252 11.7094 85.8278 12.2755 85.9568 12.8359C86.1676 13.7857 85.5768 14.8427 84.667 15.0874C83.2912 15.4653 81.8932 15.7795 80.5216 16.1516C80.0376 16.2761 79.5702 16.6439 79.4898 17.1869C79.3844 17.6763 79.6562 18.1367 79.9364 18.506C81.3371 20.3265 82.7378 22.1465 84.1386 23.9661C84.3448 24.2253 84.4837 24.5355 84.5417 24.867C84.5998 25.1984 84.5751 25.5399 84.47 25.8585C84.2273 26.6274 83.4992 27.0169 82.9445 27.528C82.215 28.21 80.9696 28.1361 80.3413 27.3441C79.2235 25.9512 78.1431 24.525 77.0406 23.119C76.8048 22.8222 76.4539 22.5211 76.0587 22.6268C75.7757 22.747 75.5307 22.9477 75.3514 23.2059C74.3403 24.5235 73.3127 25.8281 72.3002 27.1414C72.1062 27.4339 71.8402 27.6664 71.5302 27.8142C71.2202 27.962 70.8777 28.0197 70.5389 27.9812C69.7581 27.9262 69.2491 27.2398 68.6583 26.7953C67.8262 26.1742 67.6611 24.8102 68.3185 23.9921C69.7054 22.1692 71.1145 20.355 72.5124 18.5393C72.812 18.157 73.0852 17.6835 72.9784 17.1681C72.9105 16.6193 72.414 16.2732 71.9383 16.1444C70.5888 15.7896 69.2339 15.4668 67.8858 15.112C67.4445 14.9937 67.0598 14.7109 66.8044 14.317C66.5489 13.9231 66.4403 13.4452 66.4989 12.9734C66.5974 12.4102 66.7333 11.8542 66.8789 11.3025C67.0235 10.8579 67.3186 10.4836 67.7088 10.25C68.099 10.0165 68.5575 9.93971 68.9981 10.0341C70.4862 10.3744 71.9577 10.7986 73.4499 11.1157C74.0047 11.3257 74.5054 10.5568 74.124 10.1022C73.7412 9.71414 73.2405 9.48247 72.855 9.09877C71.0354 7.44379 70.6748 4.3322 72.0811 2.27904C72.7555 1.26101 73.7493 0.520951 74.8909 0.186787Z" fill="#101010" fill-opacity="0.25"/>
<path d="M21.4857 2.20809C22.9266 1.63761 24.6755 2.42094 25.2788 3.90072C25.5101 4.43489 25.5952 5.02549 25.5248 5.60709C25.4544 6.18869 25.2311 6.73858 24.8797 7.19583C24.5283 7.65309 24.0625 7.99986 23.534 8.19773C23.0054 8.3956 22.4347 8.43684 21.8851 8.31689C21.2659 8.18135 20.7028 7.84725 20.2744 7.36129C19.846 6.87533 19.5737 6.26178 19.4955 5.60637C19.2861 4.16858 20.1709 2.67432 21.4857 2.20809Z" fill="#101010" fill-opacity="0.25"/>
<path d="M1.34261 10.5076C2.14422 10.2064 2.92642 9.52882 3.82373 9.79379C4.10555 9.87562 4.36516 10.0251 4.58187 10.2302C4.79857 10.4353 4.96638 10.6905 5.07191 10.9753C6.35893 13.6771 7.63486 16.3847 8.92742 19.0837C10.2214 16.3225 11.5528 13.5816 12.8467 10.8204C13.1907 10.037 14.0949 9.55198 14.8979 9.788C15.3805 9.93279 15.8202 10.205 16.2848 10.4034C16.7494 10.6017 17.2556 10.7943 17.533 11.2475C17.7229 11.5267 17.8315 11.8573 17.8457 12.1994C17.86 12.5416 17.7793 12.8807 17.6134 13.1761C15.5719 16.9842 13.5124 20.7807 11.4696 24.5858C11.2419 25.0457 10.8733 25.4127 10.4225 25.6283C9.78312 25.9179 9.07027 25.763 8.39486 25.8064C8.00519 25.831 7.61672 25.741 7.27353 25.5468C6.93034 25.3525 6.64616 25.0617 6.45324 24.7074C4.47001 21.0393 2.48863 17.366 0.509101 13.6873C0.241434 13.208 -0.0539696 12.6954 0.00843966 12.1163C0.0389509 11.33 0.667204 10.7436 1.34261 10.5076Z" fill="#101010" fill-opacity="0.25"/>
<path d="M29.0758 10.2426C29.7331 9.91394 30.489 9.50417 31.2171 9.87484C32.0617 10.205 32.3086 11.178 32.69 11.9352C33.8452 14.3041 34.927 16.7134 36.1044 19.0677C37.3988 16.3196 38.7025 13.5738 40.0154 10.8305C40.3524 10.0341 41.2719 9.54472 42.0832 9.79231C42.5589 9.94724 42.9944 10.2064 43.4535 10.4033C43.8779 10.606 44.3591 10.761 44.6517 11.1678C44.8658 11.4532 44.9924 11.7993 45.0149 12.161C45.0375 12.5227 44.9549 12.8831 44.7779 13.1949C42.7152 17.0194 40.6525 20.8439 38.5897 24.6683C38.4062 25.0233 38.1317 25.318 37.7968 25.5192C37.462 25.7205 37.08 25.8204 36.6939 25.8078C35.9297 25.7615 35.0948 25.9628 34.4014 25.5269C33.9673 25.2982 33.6857 24.8696 33.4638 24.4352C31.4603 20.7024 29.4516 16.9731 27.4379 13.2471C27.2622 12.9591 27.1689 12.6248 27.1689 12.2835C27.1689 11.9421 27.2622 11.6078 27.4379 11.3199C27.7874 10.7002 28.503 10.5481 29.0758 10.2426Z" fill="#101010" fill-opacity="0.25"/>
<path d="M52.0249 9.92987C53.6129 9.64028 55.2993 9.80969 56.7597 10.5481C58.4206 11.3626 59.7488 12.769 60.5053 14.5144C61.2618 16.2598 61.3972 18.2297 60.8869 20.0699C60.3767 21.9101 59.2544 23.5 57.7218 24.5536C56.1892 25.6071 54.3468 26.0553 52.526 25.8176C50.7052 25.5798 49.0253 24.6717 47.7885 23.2565C46.5517 21.8413 45.839 20.0118 45.7786 18.0971C45.7182 16.1823 46.3141 14.3079 47.4591 12.8108C48.604 11.3137 50.223 10.2922 52.0249 9.92987ZM53.0637 14.7355C52.6018 14.8061 52.1615 14.9864 51.7768 15.2625C51.3921 15.5386 51.0732 15.9032 50.8447 16.3283C50.5784 16.8204 50.4432 17.378 50.4529 17.9431C50.4626 18.5082 50.6169 19.0604 50.8999 19.5422C51.1829 20.0241 51.5842 20.4182 52.0622 20.6835C52.5402 20.9489 53.0776 21.0759 53.6184 21.0514C55.2244 21.034 56.6307 19.4587 56.5073 17.7776C56.5239 15.959 54.7696 14.4213 53.0637 14.7355Z" fill="#101010" fill-opacity="0.25"/>
<path d="M21.3428 10.0008C22.0182 9.94726 22.6964 9.98925 23.3732 9.97622C24.3759 9.94292 25.208 10.9304 25.1872 11.9512C25.208 15.8172 25.1872 19.6831 25.1969 23.5505C25.226 24.2745 24.9708 25.0462 24.3648 25.4603C23.6713 25.9859 22.7754 25.7499 21.9807 25.805C21.6037 25.8495 21.2225 25.7771 20.8846 25.5969C20.5467 25.4166 20.2671 25.1365 20.0807 24.7914C19.8034 24.2861 19.8491 23.6866 19.8477 23.1263C19.8477 19.4109 19.8477 15.6946 19.8477 11.9773C19.8376 11.5176 19.9815 11.0688 20.2544 10.708C20.5273 10.3472 20.9122 10.0971 21.3428 10.0008Z" fill="#101010" fill-opacity="0.25"/>
</g>
<defs>
<clipPath id="svg1019531414_6015_clip0_256_39">
<rect width="86" height="28" fill="white"/>
</clipPath>
</defs>
</svg>