<svg xmlns="http://www.w3.org/2000/svg" width="131" height="29" viewBox="0 0 131 29" fill="none" id="svg-2010776959_4339">
<path d="M16.8704 10.8828C16.6561 10.1759 16.0301 8.5868 15.8596 7.4136C15.4833 4.81515 16.7961 3.10386 18.0018 2.71195C19.3548 2.3213 19.8834 3.02447 20.4071 4.65889C21.0842 7.1477 21.1597 10.409 20.932 15.0779C20.636 21.4555 17.5524 29.1576 9.88718 28.9975C3.27053 28.8476 0.342787 24.4131 0.0383214 17.6473C-0.105386 14.4579 0.115047 11.2697 1.39137 6.76083C2.0685 4.34637 2.67256 3.48695 4.77337 3.02447C6.42479 2.71195 6.27622 4.49886 5.90233 6.60584C5.07906 11.2697 4.69665 13.5216 5.00111 18.813C5.29584 24.4131 7.78149 26.5919 10.4876 26.5919C14.5467 26.6726 16.3492 23.1731 17.1042 18.1123C17.6998 14.0697 17.2504 12.1253 16.8704 10.8828ZM103.417 16.4061C104.997 16.4061 105.45 18.3404 105.073 19.5124C104.695 20.6767 103.345 22.0049 101.242 22.3918C100.788 21.2224 100.562 16.4061 103.417 16.4061ZM74.0345 19.0423C74.0345 17.7255 73.3537 16.6354 72.5341 16.6354C71.8496 16.6354 70.2774 17.4104 70.2774 19.9005C70.2774 21.8512 70.9472 22.7762 71.2541 23.1731C73.428 22.4699 74.0345 20.5986 74.0345 19.0423ZM50.6539 3.17947C50.548 1.93192 49.6029 1.08257 48.3242 1.08257C46.898 1.08257 45.5547 2.6313 45.6972 4.57699C45.7886 5.85982 46.5193 6.91457 47.9551 6.91457C49.6029 6.91583 50.8049 4.97141 50.6539 3.17947ZM62.8776 7.74754C62.7473 5.57251 62.2382 4.59084 61.1093 4.67149C59.6125 4.76474 58.9208 9.63776 59.2265 14.7603C59.4213 18.1022 59.9024 18.6176 60.3505 18.5849C61.1787 18.5332 63.165 12.5626 62.8776 7.74754ZM112.738 15.9348C111.806 19.9332 108.982 25.8157 104.768 25.8157C103.793 25.8157 102.064 25.4237 102.064 24.4131C102.064 23.3231 108.683 23.1731 108.683 17.9586C108.683 16.0167 106.955 13.291 104.397 13.291C101.015 13.291 97.7158 17.1055 97.7158 22.3931C97.7158 27.1338 100.562 28.6901 103.418 28.6901C108.381 28.6901 111.388 24.4874 112.965 20.9905C113.72 23.3243 114.163 28.6901 116.05 28.6901C116.798 28.6901 117.328 28.3007 118.231 26.2038C120.48 20.9893 122.663 15.001 125.671 15.001C126.795 15.001 126.121 17.1055 128.826 17.1055C130.101 17.1055 131 16.0167 131 14.7666C131 12.9759 129.424 11.5809 127.021 11.5809C119.954 11.5809 118.456 22.5481 117.327 22.5481C115.447 22.5481 116.048 13.7585 114.693 13.7585C113.49 13.7572 112.899 15.2404 112.738 15.9348ZM52.6098 25.2662C53.7363 25.2662 55.674 24.8882 57.1987 22.3616C56.3267 20.3579 55.7044 16.309 55.6179 14.8347C55.1698 7.29514 57.9769 0.202975 61.0496 0.00639051C63.3027 -0.134747 65.1051 2.07179 65.3121 5.64686C65.8663 15.0413 62.8423 18.9629 61.3285 22.3464C61.5842 23.6583 63.735 25.8913 65.7639 25.8913C66.5129 25.8913 67.419 25.5019 67.6468 25.1868C67.4958 24.6462 67.3423 23.9468 67.3423 22.9324C67.3423 17.4885 70.7255 12.8978 73.6581 12.8978C75.9879 12.8978 77.341 16.086 77.341 18.1904C77.341 20.6755 75.3096 22.7018 72.3051 24.6462C72.8336 25.1868 73.8055 25.58 74.6361 25.58C78.9242 25.58 81.1675 20.2117 82.8286 15.3097C83.1282 14.3747 83.658 13.0553 84.7078 13.0553C86.5115 13.0553 87.2665 25.3444 90.2649 25.3444C91.5473 25.3444 92.5971 22.6199 92.5971 20.5255C92.5971 18.968 92.071 18.8117 92.071 16.556C92.071 14.0697 93.3498 11.9716 95.0828 11.9716C96.1338 11.9716 96.5138 13.0553 96.5138 14.3747C96.5138 19.3536 93.0514 28.6107 87.9473 28.6107C84.1074 28.6107 84.407 21.7655 83.0552 21.7655C81.545 21.7655 79.4406 28.6875 72.0067 28.6875C70.7986 28.6875 69.5235 28.0663 68.4737 26.8187C66.6725 28.0663 65.1648 28.6107 63.4354 28.6107C60.6575 28.6107 59.4518 25.6544 58.3277 25.6544C56.9722 25.6544 55.473 28.6875 50.9584 28.6875C47.3511 28.6875 46.7495 23.715 45.4744 23.715C44.3442 23.715 42.616 28.6875 40.7381 28.6875C37.5765 28.6875 36.9067 20.0567 34.1202 20.0567C31.9415 20.0567 25.0544 28.8224 23.185 28.622C22.4336 28.5414 22.117 27.9604 22.1961 27.1817C22.3021 26.1055 23.1972 23.2248 23.5601 21.8625C24.1678 19.4972 24.7256 16.9051 25.0374 16.0784C25.3467 15.2442 26.181 14.6494 26.8508 14.7137C27.1881 14.7464 27.2892 15.3979 27.394 15.936C27.7739 17.859 28.3037 19.8198 28.9017 19.8198C29.9576 19.8198 33.4443 12.8965 35.4733 12.8965C37.9577 12.8965 38.2549 23.7881 41.6356 23.7881C42.7658 23.7881 43.5952 22.3905 44.3442 20.6742C44.4209 17.7922 45.1723 13.6791 47.4266 13.6791C49.0062 13.6791 49.7588 17.331 48.6274 20.5243C48.625 24.3325 51.0278 25.2662 52.6098 25.2662Z" fill="#101010" fill-opacity="0.25"/>
</svg>