<svg width="116" height="37" viewBox="0 0 116 37" fill="none" xmlns="http://www.w3.org/2000/svg">

<g id="Landing Page - Anti Designer Pato - Final">

<path id="Vector 1" d="M67.9429 3.79901C62.6787 3.70607 49.7571 3.24888 35.971 3.06409C21.2361 2.86658 12.955 5.20693 6.75607 7.15261C4.82835 7.75767 3.6072 9.46797 2.59587 11.2371C-0.556798 16.752 1.7061 25.9894 3.05623 27.8754C4.51733 29.9163 9.5031 31.0177 17.7228 32.9465C29.2113 35.6424 38.6559 35.666 46.971 35.4727C62.2257 35.118 76.3661 33.7714 84.9611 32.3066C99.032 29.9087 106.737 26.3635 112.517 24.3646C113.827 23.9114 114.626 23.2817 114.515 22.1396C113.735 14.1443 87.9581 6.46715 75.5009 3.11117C71.6644 2.876 64.6278 2.19276 56.8468 1.30264C53.8586 1 52.8202 1 51.7503 1" stroke="#FF00D7" stroke-width="2" stroke-linecap="round" stroke-linejoin="round"/>
</g>
</svg>
