<svg width="600" height="600" viewBox="0 0 600 600" fill="none" xmlns="http://www.w3.org/2000/svg">
<g clip-path="url(#clip0_364_18)">
<rect width="600" height="600" rx="300" fill="#E7F99A"/>
<rect x="-240" y="-240" width="1080" height="1080" fill="#E7F99A"/>
<g transform="translate(300 300) scale(1.2) translate(-300 -300)">
<path fill-rule="evenodd" clip-rule="evenodd" d="M190 324.99L190 163.574L262.891 205.657C263.187 208.281 263.33 210.834 263.33 213.254L263.33 324.99C263.33 345.24 279.74 361.65 299.99 361.65C320.239 361.65 336.66 345.229 336.66 324.99C336.66 308.692 326.029 294.886 311.335 290.107C301.481 286.9 290.687 288.014 281.67 293.222L281.67 216.501C294.863 214.275 308.425 214.51 321.547 217.114C371.982 227.131 410 271.613 410 325C410 385.749 360.759 435 300 435C287.144 435 274.808 432.794 263.34 428.74C220.615 413.637 190.01 372.892 190.01 325L190 324.99Z" fill="#101010"/>
</g>
</g>
<defs>
<clipPath id="clip0_364_18">
<rect width="600" height="600" rx="300" fill="white"/>
</clipPath>
</defs>
</svg>
